{
.appVersion = "3306";
.formatVersion = 3;
DisplayStrings = (
".,:;…!¡?¿·•*#///backslash -­–—_(){}[]‚„“”‘’«»‹›\"'",
"ABCDEFGHIJKLMNOPQRSTUVWXYZ
abcdefghijklmnopqrstuvwxyz

ÁĂǍÂÄÀĀĄÅÃÆĆČÇĊÐĎĐÉĚÊËĖÈĘ̄ĘĞĢĠĦĲÍÎÏİÌĪĮĶĹĽĻŁŃŇŅÑŊÓÔÖÒŐŌØÕŒÞŔŘŖŚŠŞȘẞŤȚÚŬÛÜÙŰŪŲŮẂŴẄẀÝŶŸỲŹŽŻ
Ya re

áăǎâäàāąåãæćčçċðďđéěêëėèēęğģġħıíîï/idotaccent ìĳīįȷķĺľļłńňņñŋóôöòőōøõœþŕřŗsśšşșßťțúŭûüùűūųůẃŵẅẁyýŷÿỳźžż
̵̶̷̸̧̨̦̈̇̀́̋̂̌̆̊̃̄̒
ªº
АБВГЃҐДЕЀЁЖЗИЙЍКЌЛMМНОПРСТУЎФХЧЦШЩЏЬЫЪЉЊЅЄЭІЇЈЋЮЯЂ
абвгѓґдеѐёжзийѝкќлмнопрстуўфхчцшщџьыъљњѕєэіїјћюяђ
0123456789
/.notdef/.null  
/nbspace .,:;…!¡?¿·•*#///backslash/periodcentered.loclCAT/periodcentered.loclCAT.case -­–—_(){}[]‚„“”‘’«»‹›\"'@&¶§©®™°|№¢$€₽£¥+−×÷=><~^%",

glyphs = (
{
glyphname = A;
kernLeft = A;
kernRight = A;
lastChange = "2023-10-17 11:37:53 +0000";
layers = (
{
layerId = "1C9972D2-AAA2-4EE5-9F28-188B121D2056";
shapes = (
{
closed = 1;
nodes = (
(481,192,l),
(550,0,l),
(646,0,l),
(380,700,l),
(288,700,l),
(22,0,l),
(118,0,l),
(187,192,l)
);
},
{
closed = 1;
nodes = (
(299.333,492.667,o),
(316,544.667,o),
(332,602,c),
(336,602,l),
(352.667,543.333,o),
(369,491,o),
(386,446,cs),
(452,274,l),
(216,274,l),
(282,446,l)
);
}
);
width = 668;
}
);
note = A;
unicode = 65;
},
{
glyphname = B;
lastChange = "2023-10-18 07:28:28 +0000";
layers = (
{
layerId = "1C9972D2-AAA2-4EE5-9F28-188B121D2056";
shapes = (
{
closed = 1;
nodes = (
(467,0,o),
(574,73,o),
(574,200,cs),
(574,281,o),
(542,333,o),
(463,361,c),
(463,364,l),
(524,391,o),
(572,443,o),
(572,518,cs),
(572,641,o),
(488,700,o),
(364,700,cs),
(86,700,l),
(86,0,l),
(366,0,l)
);
},
{
closed = 1;
nodes = (
(414,620,o),
(492,595,o),
(484,510,cs),
(475,413,o),
(399,400,o),
(356,400,cs),
(174,400,l),
(174,620,l),
(354,620,l)
);
},
{
closed = 1;
nodes = (
(436,322,o),
(488,266,o),
(486,200,cs),
(484,120,o),
(430,80,o),
(334,80,cs),
(174,80,l),
(174,322,l),
(358,322,l)
);
}
);
width = 622;
}
);
metricLeft = H;
unicode = 66;
},
{
glyphname = C;
kernLeft = C;
kernRight = C;
lastChange = "2023-10-18 07:28:38 +0000";
layers = (
{
layerId = "1C9972D2-AAA2-4EE5-9F28-188B121D2056";
shapes = (
{
closed = 1;
nodes = (
(560,220,l),
(541,145,o),
(473,72,o),
(358,72,cs),
(225.75,72,o),
(131.913,182.984,o),
(134,352,cs),
(132.069,510.335,o),
(213.818,627.881,o),
(360,630,cs),
(472.625,627.952,o),
(531.357,572.079,o),
(558,486,c),
(648,486,l),
(624,614,o),
(526,712,o),
(360,712,cs),
(168.785,712,o),
(42,567.108,o),
(42,352,cs),
(42,136.98,o),
(170.209,-9.959,o),
(360,-12,cs),
(533,-10,o),
(631,106,o),
(650,220,c)
);
}
);
width = 694;
}
);
metricLeft = O;
unicode = 67;
},
{
glyphname = D;
kernLeft = D;
kernRight = D;
lastChange = "2023-10-05 10:01:50 +0000";
layers = (
{
layerId = "1C9972D2-AAA2-4EE5-9F28-188B121D2056";
shapes = (
{
closed = 1;
nodes = (
(86,700,l),
(86,0,l),
(306,0,ls),
(520,0,o),
(654,129.353,o),
(654,352,cs),
(654,572.171,o),
(519.613,700,o),
(306,700,cs)
);
},
{
closed = 1;
nodes = (
(138,82,l),
(176,42,l),
(176,658,l),
(138,620,l),
(294,620,ls),
(472.777,620,o),
(561.991,522.755,o),
(564,352,cs),
(562.667,178.667,o),
(471,82,o),
(294,82,cs)
);
}
);
width = 696;
}
);
metricLeft = H;
metricRight = O;
unicode = 68;
},
{
glyphname = E;
kernRight = E;
lastChange = "2023-10-17 11:57:27 +0000";
layers = (
{
layerId = "1C9972D2-AAA2-4EE5-9F28-188B121D2056";
shapes = (
{
closed = 1;
nodes = (
(532,0,l),
(86,0,l),
(86,700,l),
(532,700,l),
(532,618,l),
(140,618,l),
(176,652,l),
(176,50,l),
(140,82,l),
(532,82,l)
);
},
{
closed = 1;
nodes = (
(160,322,l),
(160,402,l),
(513,402,l),
(513,322,l)
);
}
);
width = 592;
}
);
metricLeft = H;
unicode = 69;
},
{
glyphname = F;
kernLeft = F;
kernRight = F;
lastChange = "2023-10-18 07:08:17 +0000";
layers = (
{
layerId = "1C9972D2-AAA2-4EE5-9F28-188B121D2056";
shapes = (
{
closed = 1;
nodes = (
(86,0,l),
(176,0,l),
(176,652,l),
(140,618,l),
(524,618,l),
(524,700,l),
(86,700,l)
);
},
{
closed = 1;
nodes = (
(497,390,l),
(160,390,l),
(160,308,l),
(497,308,l)
);
}
);
width = 566;
}
);
metricLeft = H;
unicode = 70;
},
{
glyphname = G;
kernLeft = C;
kernRight = C;
lastChange = "2023-10-18 07:07:54 +0000";
layers = (
{
layerId = "1C9972D2-AAA2-4EE5-9F28-188B121D2056";
shapes = (
{
closed = 1;
nodes = (
(656,362,l),
(369,362,l),
(369,282,l),
(594,282,l),
(568,312,l),
(568,278,ls),
(568,152.667,o),
(488,70.667,o),
(364,72,cs),
(227.991,69.97,o),
(132.011,182.97,o),
(134,352,cs),
(132.07,512.21,o),
(215.242,627.875,o),
(364,630,cs),
(468,628.667,o),
(530,578.667,o),
(558,492,c),
(650,492,l),
(621,630,o),
(511,712,o),
(364,712,cs),
(162,712,o),
(42,558,o),
(42,352,cs),
(42,148,o),
(166,-10,o),
(362,-12,cs),
(540.194,-10.042,o),
(656,108.269,o),
(656,290,cs)
);
}
);
width = 698;
}
);
metricLeft = O;
unicode = 71;
},
{
glyphname = H;
lastChange = "2023-10-05 10:02:14 +0000";
layers = (
{
layerId = "1C9972D2-AAA2-4EE5-9F28-188B121D2056";
shapes = (
{
closed = 1;
nodes = (
(86,0,l),
(174,0,l),
(174,700,l),
(86,700,l)
);
},
{
closed = 1;
nodes = (
(646,700,l),
(558,700,l),
(558,0,l),
(646,0,l)
);
},
{
closed = 1;
nodes = (
(160,318,l),
(574,318,l),
(574,400,l),
(160,400,l)
);
}
);
width = 732;
}
);
unicode = 72;
},
{
glyphname = I;
lastChange = "2023-10-05 10:02:23 +0000";
layers = (
{
layerId = "1C9972D2-AAA2-4EE5-9F28-188B121D2056";
shapes = (
{
closed = 1;
nodes = (
(174,0,l),
(174,700,l),
(86,700,l),
(86,0,l)
);
}
);
width = 260;
}
);
metricLeft = H;
metricRight = H;
unicode = 73;
},
{
glyphname = J;
lastChange = "2023-10-17 12:02:26 +0000";
layers = (
{
layerId = "1C9972D2-AAA2-4EE5-9F28-188B121D2056";
shapes = (
{
closed = 1;
nodes = (
(16,185,l),
(16,68,o),
(105,-12,o),
(222,-10,cs),
(359.333,-11.333,o),
(438,76,o),
(438,228,cs),
(438,700,l),
(350,700,l),
(350,228,ls),
(350,133,o),
(306.667,72,o),
(224,72,cs),
(141,72,o),
(106,136,o),
(104,185,c)
);
}
);
width = 524;
}
);
metricRight = H;
unicode = 74;
},
{
glyphname = K;
kernRight = K;
lastChange = "2023-10-17 11:26:02 +0000";
layers = (
{
layerId = "1C9972D2-AAA2-4EE5-9F28-188B121D2056";
shapes = (
{
closed = 1;
nodes = (
(86,0,l),
(176,0,l),
(176,700,l),
(86,700,l)
);
},
{
closed = 1;
nodes = (
(475,700,l),
(140,320,l),
(140,201,l),
(248,325,l),
(492,0,l),
(608,0,l),
(281,416,l),
(281,362,l),
(587,700,l)
);
}
);
width = 610;
}
);
metricLeft = H;
unicode = 75;
},
{
glyphname = L;
kernRight = L;
lastChange = "2023-10-05 10:02:39 +0000";
layers = (
{
layerId = "1C9972D2-AAA2-4EE5-9F28-188B121D2056";
shapes = (
{
closed = 1;
nodes = (
(140,82,l),
(176,50,l),
(176,700,l),
(86,700,l),
(86,0,l),
(532,0,l),
(532,82,l)
);
}
);
width = 554;
}
);
metricLeft = H;
unicode = 76;
},
{
glyphname = M;
lastChange = "2023-10-17 12:18:18 +0000";
layers = (
{
layerId = "1C9972D2-AAA2-4EE5-9F28-188B121D2056";
shapes = (
{
closed = 1;
nodes = (
(174,378,o),
(173,449,o),
(170,544,c),
(174,544,l),
(405,0,l),
(489,0,l),
(724,544,l),
(728,544,l),
(723,449,o),
(720,378,o),
(720,332,cs),
(718,0,l),
(806,0,l),
(806,700,l),
(702,700,l),
(449,118,l),
(446,118,l),
(194,700,l),
(86,700,l),
(86,0,l),
(174,0,l),
(174,332,l)
);
}
);
width = 892;
}
);
metricLeft = H;
metricRight = H;
unicode = 77;
},
{
glyphname = N;
lastChange = "2023-10-05 10:02:48 +0000";
layers = (
{
layerId = "1C9972D2-AAA2-4EE5-9F28-188B121D2056";
shapes = (
{
closed = 1;
nodes = (
(175,468.667,o),
(174.333,540.667,o),
(173,586,c),
(177,586,l),
(199.667,538.667,o),
(235,479.333,o),
(283,408,cs),
(559,0,l),
(645,0,l),
(645,700,l),
(557,700,l),
(559,358,ls),
(559.667,249.333,o),
(559.667,174,o),
(559,132,c),
(557,132,l),
(533.667,176,o),
(499.667,231.333,o),
(455,298,cs),
(185,700,l),
(87,700,l),
(86,0,l),
(175,0,l),
(175,370,l)
);
}
);
width = 731;
}
);
metricLeft = H;
metricRight = H;
unicode = 78;
},
{
glyphname = O;
kernLeft = at;
kernRight = D;
lastChange = "2023-10-18 07:29:16 +0000";
layers = (
{
layerId = "1C9972D2-AAA2-4EE5-9F28-188B121D2056";
shapes = (
{
closed = 1;
nodes = (
(569,712,o),
(688,555,o),
(688,352,cs),
(688,148,o),
(568,-12,o),
(366,-12,cs),
(163,-12,o),
(42,149,o),
(42,352,cs),
(42,550,o),
(158,712,o),
(366,712,cs)
);
},
{
closed = 1;
nodes = (
(503.543,70,o),
(598,180.465,o),
(598,352,cs),
(598,522.796,o),
(503.945,630,o),
(366,630,cs),
(218.016,630,o),
(132,510.712,o),
(132,352,cs),
(132,186.293,o),
(223.609,70,o),
(366,70,cs)
);
}
);
width = 730;
}
);
unicode = 79;
},
{
glyphname = P;
kernRight = P;
lastChange = "2023-10-18 07:29:24 +0000";
layers = (
{
layerId = "1C9972D2-AAA2-4EE5-9F28-188B121D2056";
shapes = (
{
closed = 1;
nodes = (
(86,700,l),
(86,0,l),
(176,0,l),
(176,640,l),
(156,620,l),
(322,620,ls),
(418.188,617.996,o),
(474,562.535,o),
(474,476,cs),
(474,389.333,o),
(416.667,332,o),
(322,332,cs),
(158,332,l),
(158,252,l),
(334,252,ls),
(470,250,o),
(564,347,o),
(566,476,cs),
(564,600,o),
(480,700,o),
(332,700,cs)
);
}
);
width = 610;
}
);
metricLeft = H;
unicode = 80;
},
{
glyphname = Q;
kernLeft = C;
lastChange = "2023-10-17 11:12:00 +0000";
layers = (
{
layerId = "1C9972D2-AAA2-4EE5-9F28-188B121D2056";
shapes = (
{
closed = 1;
nodes = (
(376,243,l),
(475,243,l),
(659,-31,l),
(560,-31,l)
);
},
{
ref = O;
}
);
width = 730;
}
);
metricLeft = O;
metricRight = O;
unicode = 81;
},
{
glyphname = R;
kernRight = R;
lastChange = "2023-10-18 07:29:39 +0000";
layers = (
{
layerId = "1C9972D2-AAA2-4EE5-9F28-188B121D2056";
shapes = (
{
closed = 1;
nodes = (
(160,354,l),
(160,272,l),
(338,272,ls),
(499,272,o),
(570,374,o),
(570,488,cs),
(570,608,o),
(480,700,o),
(338,700,cs),
(86,700,l),
(86,0,l),
(176,0,l),
(176,646,l),
(148,620,l),
(328,620,ls),
(432,620,o),
(478,564,o),
(480,488,cs),
(478,406,o),
(425,354,o),
(328,354,cs)
);
},
{
closed = 1;
nodes = (
(592,0,l),
(430,290,l),
(324,290,l),
(488,0,l)
);
}
);
width = 618;
}
);
metricLeft = H;
unicode = 82;
},
{
glyphname = S;
lastChange = "2023-10-17 11:39:06 +0000";
layers = (
{
guides = (
{
angle = 180;
pos = (512,1129);
}
);
layerId = "1C9972D2-AAA2-4EE5-9F28-188B121D2056";
shapes = (
{
closed = 1;
nodes = (
(40,184,l),
(59.265,60.706,o),
(158.145,-12,o),
(310,-12,cs),
(452.847,-12,o),
(568,62,o),
(568,202,cs),
(568,315.333,o),
(501,362,o),
(376,388,cs),
(244,416,ls),
(186,428,o),
(156,460,o),
(156,520,cs),
(156,611,o),
(229,632,o),
(302,630,cs),
(387.333,628.667,o),
(443.333,598.667,o),
(466,528,c),
(558,528,l),
(532.759,654.206,o),
(432.077,709.999,o),
(302,712,cs),
(143.106,709.593,o),
(64.036,635.77,o),
(66,514,cs),
(64.667,416.667,o),
(114,356,o),
(226,332,cs),
(356,304,ls),
(428,289,o),
(480,257,o),
(478,196,cs),
(476,125,o),
(415,70,o),
(312,70,cs),
(222,70,o),
(153.333,113.333,o),
(132,184,c)
);
}
);
width = 614;
}
);
unicode = 83;
},
{
glyphname = T;
kernLeft = T;
kernRight = T;
lastChange = "2023-10-05 10:03:18 +0000";
layers = (
{
layerId = "1C9972D2-AAA2-4EE5-9F28-188B121D2056";
shapes = (
{
closed = 1;
nodes = (
(345,0,l),
(345,632,l),
(257,632,l),
(257,0,l)
);
},
{
closed = 1;
nodes = (
(24,700,l),
(24,618,l),
(578,618,l),
(578,700,l)
);
}
);
width = 602;
}
);
unicode = 84;
},
{
glyphname = U;
kernLeft = U;
kernRight = U;
lastChange = "2023-10-05 10:03:23 +0000";
layers = (
{
layerId = "1C9972D2-AAA2-4EE5-9F28-188B121D2056";
shapes = (
{
closed = 1;
nodes = (
(166,280,l),
(162.074,146.503,o),
(238.96,69.982,o),
(354,72,cs),
(463.333,70.667,o),
(539.333,144,o),
(542,280,cs),
(542,700,l),
(630,700,l),
(630,276,ls),
(628.058,95.36,o),
(518.525,-12,o),
(354,-12,cs),
(185.281,-12,o),
(74.046,94.304,o),
(76,276,cs),
(76,700,l),
(166,700,l)
);
}
);
width = 706;
}
);
unicode = 85;
},
{
glyphname = V;
kernLeft = V;
kernRight = V;
lastChange = "2023-10-05 10:03:27 +0000";
layers = (
{
layerId = "1C9972D2-AAA2-4EE5-9F28-188B121D2056";
shapes = (
{
closed = 1;
nodes = (
(548,700,l),
(390,266,ls),
(370.667,212.667,o),
(353.333,160,o),
(338,108,c),
(332,108,l),
(316.667,160.667,o),
(299.333,213.333,o),
(280,266,cs),
(120,700,l),
(24,700,l),
(288,0,l),
(380,0,l),
(644,700,l)
);
}
);
width = 668;
}
);
unicode = 86;
},
{
glyphname = W;
kernLeft = W;
kernRight = W;
lastChange = "2023-10-17 12:03:10 +0000";
layers = (
{
layerId = "1C9972D2-AAA2-4EE5-9F28-188B121D2056";
shapes = (
{
closed = 1;
nodes = (
(456,441,o),
(473,503,o),
(488,564,c),
(492,564,l),
(503,517,o),
(519,457,o),
(540,384,cs),
(650,0,l),
(734,0,l),
(948,700,l),
(854,700,l),
(746,332,ls),
(724,257,o),
(707,198,o),
(696,154,c),
(692,154,l),
(678,207,o),
(662,265,o),
(644,326,cs),
(534,700,l),
(448,700,l),
(332,310,ls),
(311,239,o),
(297,185,o),
(290,150,c),
(286,150,l),
(274,200,o),
(258,255,o),
(240,316,cs),
(126,700,l),
(36,700,l),
(246,0,l),
(328,0,l),
(438,378,l)
);
}
);
width = 984;
}
);
unicode = 87;
},
{
glyphname = X;
kernLeft = X;
kernRight = X;
lastChange = "2023-10-17 12:08:09 +0000";
layers = (
{
layerId = "1C9972D2-AAA2-4EE5-9F28-188B121D2056";
shapes = (
{
closed = 1;
nodes = (
(132,700,l),
(624,0,l),
(520,0,l),
(26,700,l)
);
},
{
closed = 1;
nodes = (
(278,374,l),
(356,336,l),
(320,283,l),
(318,283,l),
(126,0,l),
(22,0,l)
);
},
{
closed = 1;
nodes = (
(618,700,l),
(370,336,l),
(294,376,l),
(325,426,l),
(327,426,l),
(516,700,l)
);
}
);
width = 646;
}
);
unicode = 88;
},
{
glyphname = Y;
kernLeft = Y;
kernRight = Y;
lastChange = "2023-11-28 08:17:56 +0000";
layers = (
{
layerId = "1C9972D2-AAA2-4EE5-9F28-188B121D2056";
shapes = (
{
closed = 1;
nodes = (
(354,0,l),
(354,306,l),
(264,306,l),
(264,0,l)
);
},
{
closed = 1;
nodes = (
(6,700,l),
(272,279,l),
(346,279,l),
(612,700,l),
(512,700,l),
(310,377,l),
(308,377,l),
(106,700,l)
);
}
);
width = 618;
}
);
unicode = 89;
},
{
glyphname = Z;
kernLeft = Z;
kernRight = Z;
lastChange = "2023-10-17 12:05:12 +0000";
layers = (
{
layerId = "1C9972D2-AAA2-4EE5-9F28-188B121D2056";
shapes = (
{
closed = 1;
nodes = (
(441,618,l),
(441,615,l),
(48,76,l),
(48,0,l),
(551,-1,l),
(551,81,l),
(157,82,l),
(157,84,l),
(548,626,l),
(548,700,l),
(48,700,l),
(48,618,l)
);
}
);
width = 588;
}
);
unicode = 90;
},
{
glyphname = a;
kernRight = a;
lastChange = "2024-08-06 15:28:45 +0000";
layers = (
{
layerId = "1C9972D2-AAA2-4EE5-9F28-188B121D2056";
shapes = (
{
closed = 1;
nodes = (
(374,63,l),
(349,32,o),
(295,-11,o),
(220,-12,cs),
(117,-12,o),
(40,67,o),
(44,164,cs),
(43,263,o),
(121,322,o),
(244,322,cs),
(392,322,l),
(392,248,l),
(250,248,ls),
(157,248,o),
(130,219,o),
(130,166,cs),
(129,113,o),
(173,63,o),
(232,64,cs),
(309,64,o),
(372,117,o),
(372,190,cs),
(372,346,ls),
(372,446,o),
(292,457,o),
(250,456,cs),
(168,455,o),
(136,414,o),
(120,374,c),
(38,374,l),
(54,457,o),
(141,531,o),
(250,532,cs),
(330,533,o),
(400,502,o),
(433,447,cs),
(450,420,o),
(458,382,o),
(458,334,cs),
(458,0,l),
(376,0,l),
(376,63,l)
);
}
);
width = 514;
}
);
metricLeft = o;
unicode = 97;
},
{
glyphname = b;
kernLeft = b;
kernRight = b;
lastChange = "2023-10-04 19:05:45 +0000";
layers = (
{
guides = (
{
pos = (118,739);
}
);
layerId = "1C9972D2-AAA2-4EE5-9F28-188B121D2056";
shapes = (
{
closed = 1;
nodes = (
(438.667,-12,o),
(535.333,88.667,o),
(538,258,cs),
(540.667,400.667,o),
(448,530,o),
(308,530,cs),
(242.667,530,o),
(190,504,o),
(150,452,c),
(148,452,l),
(148,738,l),
(62,738,l),
(62,0,l),
(146,0,l),
(144,66,l),
(146,66,l),
(186,14,o),
(238.667,-12,o),
(304,-12,cs)
);
},
{
closed = 1;
nodes = (
(204,66,o),
(144,142,o),
(144,257,cs),
(144,372,o),
(206,447,o),
(299,447,cs),
(394,447,o),
(449,358,o),
(449,259,cs),
(449,142,o),
(391,66,o),
(298,66,cs)
);
}
);
width = 576;
}
);
metricRight = o;
unicode = 98;
},
{
glyphname = c;
kernLeft = c;
kernRight = c;
lastChange = "2023-10-18 07:30:24 +0000";
layers = (
{
layerId = "1C9972D2-AAA2-4EE5-9F28-188B121D2056";
shapes = (
{
closed = 1;
nodes = (
(185.701,67.994,o),
(126,145.581,o),
(126,260,cs),
(126,373.661,o),
(188.402,448.053,o),
(276,450,cs),
(348,448.667,o),
(390,404,o),
(406,352,c),
(492,352,l),
(475,459,o),
(385,528,o),
(276,530,cs),
(132.273,527.976,o),
(38,416.147,o),
(38,260,cs),
(38,94.988,o),
(138.527,-11.964,o),
(276,-10,cs),
(394.679,-11.978,o),
(479.509,68.071,o),
(492,168,c),
(406,168,l),
(393.418,113.478,o),
(350.547,68.091,o),
(278,70,cs)
);
}
);
width = 530;
}
);
metricLeft = o;
metricRight = o;
unicode = 99;
},
{
glyphname = e;
kernLeft = c;
kernRight = b;
lastChange = "2023-10-18 07:30:36 +0000";
layers = (
{
layerId = "1C9972D2-AAA2-4EE5-9F28-188B121D2056";
shapes = (
{
closed = 1;
nodes = (
(408,293,l),
(408,300,ls),
(408,392,o),
(356.667,452,o),
(274,452,cs),
(186.56,452,o),
(128,389.378,o),
(128,300,c),
(128,234,l),
(128,128.74,o),
(193.303,66,o),
(284,66,cs),
(346.667,66,o),
(391,96,o),
(402,130,c),
(490,130,l),
(468,39,o),
(378,-12,o),
(282,-10,cs),
(119,-12,o),
(38,112,o),
(38,262,cs),
(38,431.41,o),
(138.433,528.035,o),
(276,530,cs),
(403.738,528.035,o),
(496,440,o),
(496,283,cs),
(496,239,l),
(88,239,l),
(88,313,l),
(424,313,l)
);
}
);
width = 534;
}
);
metricLeft = o;
metricRight = o;
unicode = 101;
},
{
glyphname = f;
kernLeft = f;
kernRight = f;
lastChange = "2023-10-05 10:04:35 +0000";
layers = (
{
layerId = "1C9972D2-AAA2-4EE5-9F28-188B121D2056";
shapes = (
{
closed = 1;
nodes = (
(314,520,l),
(34,520,l),
(34,444,l),
(314,444,l)
);
},
{
closed = 1;
nodes = (
(120,0,l),
(206,0,l),
(206,470,l),
(206,474,l),
(206,566,ls),
(206,626,o),
(232.667,650,o),
(286,650,cs),
(354,650,l),
(354,728,l),
(280,728,ls),
(176,728,o),
(118.667,672,o),
(120,568,cs)
);
}
);
width = 354;
}
);
unicode = 102;
},
{
glyphname = g;
kernLeft = c;
lastChange = "2024-04-05 15:13:55 +0000";
layers = (
{
guides = (
{
angle = 180;
pos = (342,-192);
},
{
angle = 180;
pos = (306,-202);
}
);
layerId = "1C9972D2-AAA2-4EE5-9F28-188B121D2056";
shapes = (
{
closed = 1;
nodes = (
(190.828,68.064,o),
(126,151.871,o),
(126,262,cs),
(126,375.985,o),
(190.638,450,o),
(276,450,cs),
(366.002,450,o),
(430,377.608,o),
(430,264,cs),
(430,260,ls),
(430,150.231,o),
(366.035,68.043,o),
(276,70,cs)
);
},
{
closed = 1;
nodes = (
(426,454,l),
(398,500.667,o),
(338.667,530.667,o),
(268,532,cs),
(128,530,o),
(38,414,o),
(38,262,cs),
(38,105,o),
(133,-12,o),
(266,-12,cs),
(336.667,-12,o),
(392,24,o),
(424,72,c),
(428,72,l),
(428,26,ls),
(428,-72.323,o),
(372,-124,o),
(280,-124,cs),
(200,-124,o),
(163,-87,o),
(148,-42,c),
(62,-42,l),
(71,-127,o),
(150,-202,o),
(278,-202,cs),
(415,-202,o),
(514,-117,o),
(514,26,cs),
(514,520,l),
(430,520,l),
(430,454,l)
);
}
);
width = 578;
}
);
unicode = 103;
},
{
glyphname = h;
kernLeft = b;
kernRight = h;
lastChange = "2023-10-18 07:31:00 +0000";
layers = (
{
layerId = "1C9972D2-AAA2-4EE5-9F28-188B121D2056";
shapes = (
{
closed = 1;
nodes = (
(443,532,o),
(302,532,cs),
(246,532,o),
(184,513.333,o),
(152,464,c),
(150,464,l),
(150,740,l),
(64,740,l),
(64,0,l),
(150,0,l),
(150,246,ls),
(150,317,o),
(153,360,o),
(160,376,cs),
(182,428,o),
(225,454,o),
(288,454,cs),
(340,454,o),
(376,424,o),
(392,384,cs),
(399,363,o),
(402,330,o),
(402,286,cs),
(402,0,l),
(488,0,l),
(488,292,ls),
(488,433,o)
);
}
);
width = 548;
}
);
unicode = 104;
},
{
glyphname = k;
kernLeft = b;
kernRight = k;
lastChange = "2023-10-17 11:27:29 +0000";
layers = (
{
layerId = "1C9972D2-AAA2-4EE5-9F28-188B121D2056";
shapes = (
{
closed = 1;
nodes = (
(64,0,l),
(150,0,l),
(150,728,l),
(64,728,l)
);
},
{
closed = 1;
nodes = (
(376,520,l),
(128,278,l),
(130,179,l),
(199,242,l),
(388,0,l),
(500,0,l),
(249,310,l),
(249,286,l),
(486,520,l)
);
}
);
width = 506;
}
);
unicode = 107;
},
{
glyphname = l;
kernLeft = b;
kernRight = d;
lastChange = "2023-10-18 07:31:16 +0000";
layers = (
{
layerId = "1C9972D2-AAA2-4EE5-9F28-188B121D2056";
shapes = (
{
closed = 1;
nodes = (
(161,0,l),
(161,733,l),
(75,733,l),
(76,0,l)
);
}
);
width = 236;
}
);
unicode = 108;
},
{
glyphname = m;
kernLeft = m;
kernRight = h;
lastChange = "2023-10-18 07:31:44 +0000";
layers = (
{
layerId = "1C9972D2-AAA2-4EE5-9F28-188B121D2056";
shapes = (
{
closed = 1;
nodes = (
(64,0,l),
(64,520,l),
(148,520,l),
(150,396,l),
(150,0,l)
);
},
{
closed = 1;
nodes = (
(382,0,l),
(382,330,ls),
(382,413,o),
(335,454,o),
(274,455,cs),
(191,453,o),
(150,399,o),
(150,314,c),
(114,392,l),
(135,473,o),
(199,531,o),
(290,532,cs),
(403,531,o),
(468,453,o),
(468,330,cs),
(468,0,l)
);
},
{
closed = 1;
nodes = (
(700,0,l),
(700,328,ls),
(700,410,o),
(657,454,o),
(594,455,cs),
(514,454,o),
(468,400,o),
(468,334,c),
(418,398,l),
(441,478,o),
(516,531,o),
(602,532,cs),
(709,531,o),
(786,469,o),
(786,336,cs),
(786,0,l)
);
},
{
closed = 1;
nodes = (
(152,467,l),
(152,462,l),
(146,462,l),
(146,467,l)
);
},
{
closed = 1;
nodes = (
(444,451,l),
(444,446,l),
(438,446,l),
(438,451,l)
);
}
);
width = 850;
}
);
unicode = 109;
},
{
glyphname = n;
kernLeft = m;
kernRight = h;
lastChange = "2023-10-18 07:31:58 +0000";
layers = (
{
layerId = "1C9972D2-AAA2-4EE5-9F28-188B121D2056";
shapes = (
{
closed = 1;
nodes = (
(439,532,o),
(302,532,cs),
(246,532,o),
(184,513.333,o),
(152,464,c),
(150,464,l),
(150,520,l),
(64,520,l),
(64,0,l),
(150,0,l),
(150,246,ls),
(150,320,o),
(153,363,o),
(160,376,cs),
(187,428,o),
(229,454,o),
(284,454,cs),
(336,454,o),
(376,428,o),
(392,388,cs),
(399.333,366.667,o),
(403,331.667,o),
(403,283,cs),
(403,0,l),
(489,0,l),
(489,289,ls),
(489,438,o)
);
}
);
width = 548;
}
);
unicode = 110;
},
{
glyphname = o;
lastChange = "2023-10-04 19:05:45 +0000";
layers = (
{
layerId = "1C9972D2-AAA2-4EE5-9F28-188B121D2056";
shapes = (
{
closed = 1;
nodes = (
(107,-12,o),
(38,118,o),
(38,260,cs),
(38,406,o),
(110,531,o),
(278,532,cs),
(447,531,o),
(517,402,o),
(518,260,cs),
(517,106,o),
(439,-12,o),
(278,-12,cs)
);
},
{
closed = 1;
nodes = (
(399,63,o),
(431,170,o),
(432,260,cs),
(431,349,o),
(398,455,o),
(278,456,cs),
(153,455,o),
(124,346,o),
(124,260,cs),
(124,167,o),
(157,63,o),
(278,64,cs)
);
}
);
width = 556;
}
);
unicode = 111;
},
{
glyphname = p;
lastChange = "2023-10-18 07:09:56 +0000";
layers = (
{
layerId = "1C9972D2-AAA2-4EE5-9F28-188B121D2056";
shapes = (
{
closed = 1;
nodes = (
(249,534,o),
(194.667,507.667,o),
(148,453,c),
(146,453,l),
(146,520,l),
(64,520,l),
(64,-186,l),
(150,-186,l),
(148,68,l),
(150,68,l),
(182.667,15.333,o),
(234.667,-11.333,o),
(306,-12,cs),
(443.333,-13.333,o),
(539,88.667,o),
(539,258,cs),
(539,426,o),
(437.667,532,o),
(311,532,cs)
);
},
{
closed = 1;
nodes = (
(397,454,o),
(450,366,o),
(451,262,cs),
(450,148,o),
(401,66,o),
(301,66,cs),
(193,66,o),
(146,149,o),
(147,262,cs),
(146,389,o),
(212,454,o),
(301,454,cs)
);
}
);
width = 577;
}
);
metricLeft = n;
metricRight = o;
unicode = 112;
},
{
glyphname = r;
lastChange = "2023-11-28 08:21:37 +0000";
layers = (
{
layerId = "1C9972D2-AAA2-4EE5-9F28-188B121D2056";
shapes = (
{
closed = 1;
nodes = (
(146,306,o),
(150,336,o),
(157,355,cs),
(178,410,o),
(220,440,o),
(293,440,cs),
(323,440,l),
(323,524,l),
(298,524,ls),
(227,524,o),
(173.333,487.667,o),
(148,433,c),
(146,433,l),
(146,520,l),
(64,520,l),
(64,0,l),
(146,0,l),
(146,267,l)
);
}
);
width = 343;
}
);
metricLeft = n;
unicode = 114;
},
{
glyphname = s;
lastChange = "2023-10-04 19:05:45 +0000";
layers = (
{
layerId = "1C9972D2-AAA2-4EE5-9F28-188B121D2056";
shapes = (
{
closed = 1;
nodes = (
(42,142,l),
(48.667,68.667,o),
(94.667,24,o),
(156,4,cs),
(186.667,-6,o),
(219.333,-11.333,o),
(254,-12,cs),
(360.278,-10.032,o),
(448,44.994,o),
(448,150,cs),
(448,258,o),
(390,294,o),
(302,306,cs),
(210,318,ls),
(162,324.667,o),
(138,344,o),
(138,380,cs),
(138,422.667,o),
(178,454.667,o),
(242,456,cs),
(299.333,454.667,o),
(338,432,o),
(354,388,c),
(438,388,l),
(422.116,475.36,o),
(349.703,529.929,o),
(242,532,cs),
(127.55,529.919,o),
(52,460.285,o),
(52,374,cs),
(52,291.333,o),
(106.667,250,o),
(196,238,cs),
(286,226,ls),
(332.667,219.333,o),
(362,182,o),
(362,146,cs),
(362,95.333,o),
(320,64.667,o),
(252,66,cs),
(184,64.667,o),
(136.667,92.667,o),
(126,142,c)
);
}
);
width = 490;
}
);
unicode = 115;
},
{
glyphname = t;
kernLeft = t;
kernRight = t;
lastChange = "2023-10-05 10:05:38 +0000";
layers = (
{
layerId = "1C9972D2-AAA2-4EE5-9F28-188B121D2056";
shapes = (
{
closed = 1;
nodes = (
(300,520,l),
(20,520,l),
(20,444,l),
(300,444,l)
);
},
{
closed = 1;
nodes = (
(190,626,l),
(104,626,l),
(104,142,ls),
(102.667,36.667,o),
(153.333,-12,o),
(252,-12,cs),
(300,-12,l),
(300,66,l),
(266,66,ls),
(218,64.667,o),
(188.667,83.333,o),
(190,146,cs)
);
}
);
width = 340;
}
);
unicode = 116;
},
{
glyphname = v;
kernLeft = v;
kernRight = v;
lastChange = "2023-10-05 10:05:43 +0000";
layers = (
{
layerId = "1C9972D2-AAA2-4EE5-9F28-188B121D2056";
shapes = (
{
closed = 1;
nodes = (
(494,520,l),
(402,520,l),
(306,256,ls),
(283.333,193.333,o),
(266.333,144.667,o),
(255,110,c),
(251,110,l),
(239.667,144.667,o),
(222.667,193.333,o),
(200,256,cs),
(104,520,l),
(12,520,l),
(208,0,l),
(298,0,l)
);
}
);
width = 506;
}
);
unicode = 118;
},
{
glyphname = w;
kernLeft = w;
kernRight = w;
lastChange = "2023-10-05 10:05:46 +0000";
layers = (
{
layerId = "1C9972D2-AAA2-4EE5-9F28-188B121D2056";
shapes = (
{
closed = 1;
nodes = (
(342,268,ls),
(352,301.333,o),
(364.333,349,o),
(379,411,c),
(382,411,l),
(398,349,o),
(411,301.333,o),
(421,268,cs),
(499,0,l),
(585,0,l),
(748,520,l),
(658,520,l),
(573,241,ls),
(565,213.667,o),
(555,175,o),
(543,125,c),
(540,125,l),
(527.333,175,o),
(517,213.667,o),
(509,241,cs),
(426,520,l),
(338,520,l),
(249,222,ls),
(243.667,203.333,o),
(235.333,173,o),
(224,131,c),
(222,131,l),
(210.667,173,o),
(202,203.333,o),
(196,222,cs),
(106,520,l),
(15,520,l),
(180,0,l),
(263,0,l)
);
}
);
width = 762;
}
);
unicode = 119;
},
{
glyphname = x;
lastChange = "2023-10-05 06:41:44 +0000";
layers = (
{
layerId = "1C9972D2-AAA2-4EE5-9F28-188B121D2056";
shapes = (
{
closed = 1;
nodes = (
(114,520,l),
(482,0,l),
(384,-4,l),
(16,520,l)
);
},
{
closed = 1;
nodes = (
(286,234,l),
(230,290,l),
(380,520,l),
(478,520,l)
);
},
{
closed = 1;
nodes = (
(204,278,l),
(260,216,l),
(112,0,l),
(14,0,l)
);
}
);
width = 496;
}
);
unicode = 120;
},
{
glyphname = y;
kernLeft = v;
kernRight = y;
lastChange = "2024-04-05 15:07:34 +0000";
layers = (
{
guides = (
{
angle = 180;
pos = (342,-192);
}
);
layerId = "1C9972D2-AAA2-4EE5-9F28-188B121D2056";
shapes = (
{
closed = 1;
nodes = (
(238,-191,l),
(507,520,l),
(415,520,l),
(312,239,ls),
(307,226,o),
(278,148,o),
(266,114,c),
(264,114,l),
(251,148,o),
(221,226,o),
(216,239,cs),
(108,520,l),
(12,520,l),
(220,0,l),
(145,-191,l)
);
}
);
width = 519;
}
);
unicode = 121;
},
{
glyphname = z;
lastChange = "2023-10-05 10:05:54 +0000";
layers = (
{
guides = (
{
pos = (66,607);
},
{
pos = (52,758);
}
);
layerId = "1C9972D2-AAA2-4EE5-9F28-188B121D2056";
shapes = (
{
closed = 1;
nodes = (
(354,444,l),
(338,474,l),
(36,68,l),
(36,0,l),
(426,0,l),
(426,78,l),
(108,78,l),
(124,48,l),
(426,452,l),
(426,520,l),
(36,520,l),
(36,444,l)
);
}
);
width = 462;
}
);
unicode = 122;
},
{
glyphname = AE;
lastChange = "2023-10-04 20:20:57 +0000";
layers = (
{
layerId = "1C9972D2-AAA2-4EE5-9F28-188B121D2056";
shapes = (
{
alignment = -1;
pos = (384,0);
ref = E;
},
{
closed = 1;
nodes = (
(118,0,l),
(22,0,l),
(435,700,l),
(560,700,l),
(559,0,l),
(470,0,l),
(470,186,l),
(228,187,l)
);
},
{
closed = 1;
nodes = (
(470,268,l),
(470,602,l),
(465,602,l),
(264,268,l)
);
}
);
width = 976;
}
);
metricLeft = A;
metricRight = E;
unicode = 198;
},
{
glyphname = Thorn;
lastChange = "2023-10-04 19:05:45 +0000";
layers = (
{
layerId = "1C9972D2-AAA2-4EE5-9F28-188B121D2056";
shapes = (
{
closed = 1;
nodes = (
(176,610,l),
(176,700,l),
(86,700,l),
(86,600,l),
(86,0,l),
(176,0,l),
(176,550,l),
(156,530,l),
(322,530,ls),
(415.832,530,o),
(474,473.694,o),
(474,386,cs),
(474,299.333,o),
(416.667,242,o),
(322,242,cs),
(158,242,l),
(158,162,l),
(334,162,ls),
(426,162,o),
(499.667,204.833,o),
(537,273.5,cs),
(555.667,307.833,o),
(565.333,345.333,o),
(566,386,cs),
(564.667,468.667,o),
(527.667,540,o),
(457,580,cs),
(421.667,600,o),
(380,610,o),
(332,610,cs)
);
}
);
width = 610;
}
);
metricLeft = P;
metricRight = P;
unicode = 222;
},
{
glyphname = Germandbls;
lastChange = "2023-10-04 19:05:45 +0000";
layers = (
{
layerId = "1C9972D2-AAA2-4EE5-9F28-188B121D2056";
shapes = (
{
closed = 1;
nodes = (
(463,619,l),
(311,403,l),
(311,316,l),
(368,316,ls),
(451.333,316,o),
(494.333,277.667,o),
(497,201,cs),
(497,127.667,o),
(450,83,o),
(370,83,cs),
(277,83,l),
(277,1,l),
(374,0,ls),
(507.333,-1.333,o),
(591,77.667,o),
(587,203,cs),
(587,317.667,o),
(523.333,388.667,o),
(406,398,c),
(551,608,l),
(551,700,l),
(91,700,l),
(86,0,l),
(174,0,l),
(174,619,l),
(174,619,l)
);
}
);
width = 629;
}
);
metricLeft = H;
metricRight = O;
unicode = 7838;
},
{
glyphname = ae;
lastChange = "2023-10-04 19:05:45 +0000";
layers = (
{
layerId = "1C9972D2-AAA2-4EE5-9F28-188B121D2056";
shapes = (
{
alignment = -1;
pos = (331,0);
ref = e;
},
{
closed = 1;
nodes = (
(415,96,ls),
(363,16,o),
(292.667,-12,o),
(218,-12,cs),
(154,-10.667,o),
(98,13.667,o),
(66,71,cs),
(50,99.667,o),
(42.667,129.333,o),
(44,160,cs),
(42.667,258.667,o),
(119.333,322,o),
(242,322,cs),
(390,322,l),
(390,248,l),
(248,248,ls),
(154.667,248,o),
(130,215.333,o),
(130,162,cs),
(128.667,108.667,o),
(171.333,64,o),
(230,64,cs),
(309.045,62.024,o),
(370,125.458,o),
(370,205,cs),
(370,346,ls),
(370,412.667,o),
(352,427.833,o),
(312,444.5,cs),
(292,452.833,o),
(270.667,456.667,o),
(248,456,cs),
(186.667,454.667,o),
(136,424,o),
(120,384,c),
(38,384,l),
(54,466.667,o),
(138.667,530.667,o),
(248,532,cs),
(328,533.333,o),
(397.667,501.667,o),
(431,447,cs),
(447.667,419.667,o),
(456,382,o),
(456,334,cs),
(456,160,l),
(456,160,l)
);
}
);
width = 865;
}
);
metricLeft = a;
metricRight = e;
unicode = 230;
},
{
glyphname = eth;
lastChange = "2023-10-04 19:05:45 +0000";
layers = (
{
layerId = "1C9972D2-AAA2-4EE5-9F28-188B121D2056";
shapes = (
{
closed = 1;
nodes = (
(40.667,78.667,o),
(137.333,-12,o),
(272,-12,cs),
(362.667,-10.667,o),
(431.333,26,o),
(478,98,cs),
(524,169,o),
(600,464,o),
(326,738,c),
(212,738,l),
(314,642,o),
(381,560,o),
(416,450,c),
(414,450,l),
(374,488.667,o),
(325.333,508.667,o),
(268,510,cs),
(128,510,o),
(35.333,390.667,o),
(38,248,cs)
);
},
{
closed = 1;
nodes = (
(185,66,o),
(127,132,o),
(127,249,cs),
(127,348,o),
(182,427,o),
(277,427,cs),
(370,427,o),
(432,372,o),
(432,257,cs),
(432,142,o),
(372,66,o),
(278,66,cs)
);
},
{
closed = 1;
nodes = (
(215,558,l),
(482,652,l),
(481,736,l),
(210,635,l),
(210,635,l)
);
}
);
width = 562;
}
);
metricLeft = d;
metricRight = o;
unicode = 240;
},
{
glyphname = idotless;
lastChange = "2023-10-17 08:49:05 +0000";
layers = (
{
anchors = (
{
name = bottom;
pos = (122,-73);
},
{
name = ogonek;
pos = (159,0);
},
{
name = top;
pos = (119,520);
}
);
layerId = "1C9972D2-AAA2-4EE5-9F28-188B121D2056";
shapes = (
{
closed = 1;
nodes = (
(161,0,l),
(161,520,l),
(75,520,l),
(76,0,l)
);
}
);
width = 236;
}
);
metricLeft = l;
metricRight = l;
unicode = 305;
},
{
glyphname = jdotless;
lastChange = "2023-10-17 09:53:51 +0000";
layers = (
{
anchors = (
{
name = bottom;
pos = (92,-246);
},
{
name = top;
pos = (92,520);
}
);
layerId = "1C9972D2-AAA2-4EE5-9F28-188B121D2056";
shapes = (
{
closed = 1;
nodes = (
(-44,-114,l),
(-46,-190,l),
(-10,-190,ls),
(80.738,-190,o),
(130,-137.351,o),
(130,-30,cs),
(130,520,l),
(44,520,l),
(44,-26,ls),
(44,-92.667,o),
(14.667,-114,o),
(-24,-114,cs)
);
}
);
width = 197;
}
);
metricLeft = j;
metricRight = j;
unicode = 567;
},
{
glyphname = eng;
lastChange = "2023-10-04 19:05:45 +0000";
layers = (
{
layerId = "1C9972D2-AAA2-4EE5-9F28-188B121D2056";
shapes = (
{
alignment = -1;
ref = n;
},
{
closed = 1;
nodes = (
(315,-114,l),
(313,-190,l),
(349,-190,ls),
(439.738,-190,o),
(489,-137.351,o),
(489,-30,cs),
(489,200,l),
(403,200,l),
(403,-26,ls),
(403,-92.667,o),
(373.667,-114,o),
(335,-114,cs)
);
}
);
width = 548;
}
);
unicode = 331;
},
{
glyphname = oslash;
lastChange = "2023-10-17 08:57:20 +0000";
layers = (
{
layerId = "1C9972D2-AAA2-4EE5-9F28-188B121D2056";
shapes = (
{
pos = (-2,0);
ref = o;
},
{
closed = 1;
nodes = (
(-9,0,l),
(466,520,l),
(559,520,l),
(88,0,l)
);
}
);
width = 554;
}
);
unicode = 248;
},
{
glyphname = oe;
lastChange = "2023-10-04 19:05:45 +0000";
layers = (
{
layerId = "1C9972D2-AAA2-4EE5-9F28-188B121D2056";
shapes = (
{
alignment = -1;
ref = o;
},
{
pos = (394,0);
ref = e;
},
{
closed = 1;
nodes = (
(488,102,l),
(488,89,l),
(466,89,l),
(466,102,l),
(466,102,l)
);
},
{
closed = 1;
nodes = (
(488,430,l),
(488,417,l),
(466,417,l),
(466,430,l),
(466,430,l)
);
}
);
width = 928;
}
);
metricLeft = o;
metricRight = o;
unicode = 339;
},
{
glyphname = thorn;
lastChange = "2023-10-04 19:05:45 +0000";
layers = (
{
layerId = "1C9972D2-AAA2-4EE5-9F28-188B121D2056";
shapes = (
{
ref = p;
},
{
closed = 1;
nodes = (
(64,415,l),
(146,415,l),
(146,700,l),
(64,700,l),
(64,700,l)
);
}
);
width = 577;
}
);
metricLeft = p;
metricRight = p;
unicode = 254;
},
{
glyphname = germandbls;
lastChange = "2023-10-04 19:05:45 +0000";
layers = (
{
layerId = "1C9972D2-AAA2-4EE5-9F28-188B121D2056";
shapes = (
{
closed = 1;
nodes = (
(92,-7,l),
(174,-7,l),
(174,524,ls),
(174,590,o),
(238,632,o),
(322,632,cs),
(408,632,o),
(462,585,o),
(462,517,cs),
(462,451,o),
(417,402,o),
(326,402,cs),
(275,402,l),
(275,321,l),
(332,321,ls),
(427,321,o),
(488,281,o),
(488,201,cs),
(488,122,o),
(427,73,o),
(339,73,cs),
(275,74,l),
(275,-10,l),
(339,-10,ls),
(434,-10,o),
(507,28,o),
(548,92,cs),
(569,124,o),
(579,160,o),
(579,200,cs),
(579,267,o),
(548,314,o),
(509,341,cs),
(490,354,o),
(471,363,o),
(453,368,c),
(504,386,o),
(553,441,o),
(553,520,cs),
(553,635,o),
(460,715,o),
(322,715,cs),
(193,715,o),
(86,645,o),
(86,524,cs)
);
}
);
width = 621;
}
);
metricLeft = B;
metricRight = O;
unicode = 223;
},
{
glyphname = dieresiscomb;
lastChange = "2023-10-17 08:26:45 +0000";
layers = (
{
anchors = (
{
name = _top;
pos = (134,526);
}
);
layerId = "1C9972D2-AAA2-4EE5-9F28-188B121D2056";
shapes = (
{
closed = 1;
nodes = (
(0,635,l),
(100,635,l),
(100,735,l),
(0,735,l)
);
},
{
closed = 1;
nodes = (
(190,635,l),
(290,635,l),
(290,735,l),
(190,735,l)
);
}
);
width = 290;
}
);
unicode = 776;
},
{
glyphname = dotaccentcomb;
lastChange = "2023-10-17 08:26:57 +0000";
layers = (
{
anchors = (
{
name = _top;
pos = (70,520);
}
);
layerId = "1C9972D2-AAA2-4EE5-9F28-188B121D2056";
shapes = (
{
closed = 1;
nodes = (
(16,637,l),
(116,637,l),
(116,737,l),
(16,737,l)
);
}
);
width = 134;
}
);
unicode = 775;
},
{
glyphname = gravecomb;
lastChange = "2023-10-17 08:49:50 +0000";
layers = (
{
anchors = (
{
name = _top;
pos = (183,520);
}
);
guides = (
{
pos = (40,784);
}
);
layerId = "1C9972D2-AAA2-4EE5-9F28-188B121D2056";
shapes = (
{
closed = 1;
nodes = (
(99,784,l),
(3,784,l),
(109,632,l),
(183,632,l)
);
}
);
width = 180;
}
);
unicode = 768;
},
{
glyphname = acutecomb;
lastChange = "2023-10-17 08:58:40 +0000";
layers = (
{
anchors = (
{
name = _top;
pos = (43,520);
}
);
layerId = "1C9972D2-AAA2-4EE5-9F28-188B121D2056";
shapes = (
{
closed = 1;
nodes = (
(91,632,l),
(197,784,l),
(101,784,l),
(17,632,l)
);
}
);
width = 200;
}
);
unicode = 769;
},
{
glyphname = hungarumlautcomb;
lastChange = "2023-10-17 08:58:39 +0000";
layers = (
{
anchors = (
{
name = _top;
pos = (183,520);
}
);
layerId = "1C9972D2-AAA2-4EE5-9F28-188B121D2056";
shapes = (
{
closed = 1;
nodes = (
(277,614,l),
(383,766,l),
(287,766,l),
(203,614,l)
);
},
{
closed = 1;
nodes = (
(88,614,l),
(194,766,l),
(98,766,l),
(14,614,l)
);
}
);
width = 386;
}
);
unicode = 779;
},
{
glyphname = circumflexcomb;
lastChange = "2023-10-17 08:58:34 +0000";
layers = (
{
anchors = (
{
name = _top;
pos = (173,520);
},
{
name = top;
pos = (173,583);
}
);
layerId = "1C9972D2-AAA2-4EE5-9F28-188B121D2056";
shapes = (
{
closed = 1;
nodes = (
(336,631,l),
(248,631,l),
(173,719,l),
(99,631,l),
(10,631,l),
(134,782,l),
(213,782,l)
);
}
);
width = 346;
}
);
unicode = 770;
},
{
glyphname = caroncomb;
lastChange = "2023-10-17 08:58:31 +0000";
layers = (
{
anchors = (
{
name = _top;
pos = (163,520);
},
{
name = top;
pos = (163,583);
}
);
layerId = "1C9972D2-AAA2-4EE5-9F28-188B121D2056";
shapes = (
{
closed = 1;
nodes = (
(124,622,l),
(0,773,l),
(89,773,l),
(163,685,l),
(238,773,l),
(326,773,l),
(203,622,l)
);
}
);
width = 326;
}
);
unicode = 780;
},
{
glyphname = brevecomb;
lastChange = "2023-10-04 19:05:45 +0000";
layers = (
{
anchors = (
{
name = _top;
pos = (230,520);
}
);
layerId = "1C9972D2-AAA2-4EE5-9F28-188B121D2056";
shapes = (
{
closed = 1;
nodes = (
(316,597,o),
(371,661,o),
(371,731,cs),
(371,749,l),
(298,749,l),
(298,726,ls),
(298,694,o),
(278,665,o),
(226,665,cs),
(175,665,o),
(159,701,o),
(159,733,cs),
(159,749,l),
(85,749,l),
(85,735,ls),
(85,664,o),
(141,597,o),
(226,597,cs)
);
}
);
width = 451;
}
);
unicode = 774;
},
{
glyphname = ringcomb;
lastChange = "2023-10-04 19:05:45 +0000";
layers = (
{
anchors = (
{
name = _top;
pos = (106,526);
}
);
guides = (
{
pos = (-106,747);
}
);
layerId = "1C9972D2-AAA2-4EE5-9F28-188B121D2056";
shapes = (
{
closed = 1;
nodes = (
(0,626,o),
(46,583,o),
(103,583,cs),
(160,583,o),
(206,626,o),
(206,681,cs),
(206,736,o),
(160,779,o),
(103,779,cs),
(46,779,o),
(0,736,o),
(0,681,cs)
);
},
{
closed = 1;
nodes = (
(68,702,o),
(83,717,o),
(102,717,cs),
(122,717,o),
(137,702,o),
(137,682,cs),
(137,662,o),
(122,647,o),
(102,647,cs),
(83,647,o),
(68,662,o),
(68,682,cs)
);
}
);
width = 206;
}
);
unicode = 778;
},
{
glyphname = tildecomb;
lastChange = "2023-10-04 19:05:45 +0000";
layers = (
{
anchors = (
{
name = _top;
pos = (173,520);
}
);
layerId = "1C9972D2-AAA2-4EE5-9F28-188B121D2056";
shapes = (
{
closed = 1;
nodes = (
(68,617,l),
(68,660,o),
(76,681,o),
(98,681,cs),
(140,681,o),
(171,618,o),
(232,618,cs),
(285,618,o),
(324,667,o),
(324,756,c),
(256,756,l),
(256,718,o),
(250,691,o),
(225,691,cs),
(193,691,o),
(146,756,o),
(97,756,cs),
(39,756,o),
(0,708,o),
(0,618,c)
);
}
);
width = 324;
}
);
unicode = 771;
},
{
glyphname = macroncomb;
lastChange = "2023-10-04 19:05:45 +0000";
layers = (
{
anchors = (
{
name = _top;
pos = (266,520);
}
);
layerId = "1C9972D2-AAA2-4EE5-9F28-188B121D2056";
shapes = (
{
closed = 1;
nodes = (
(419,651,l),
(419,723,l),
(108,723,l),
(108,651,l),
(108,651,l)
);
}
);
width = 512;
}
);
unicode = 772;
},
{
glyphname = commaturnedabovecomb;
lastChange = "2023-10-04 19:05:45 +0000";
layers = (
{
anchors = (
{
name = _top;
pos = (102,520);
},
{
name = top;
pos = (103,623);
}
);
layerId = "1C9972D2-AAA2-4EE5-9F28-188B121D2056";
shapes = (
{
closed = 1;
nodes = (
(156,740,l),
(98,740,l),
(170,860,l),
(106,860,l),
(42,752,l),
(42,626,l),
(156,626,l),
(156,626,l)
);
}
);
width = 228;
}
);
unicode = 786;
},
{
glyphname = commaaccentcomb;
lastChange = "2023-10-04 19:05:45 +0000";
layers = (
{
anchors = (
{
name = _bottom;
pos = (64,15);
},
{
name = bottom;
pos = (64,-217);
}
);
layerId = "1C9972D2-AAA2-4EE5-9F28-188B121D2056";
shapes = (
{
closed = 1;
nodes = (
(14,-100,l),
(72,-100,l),
(0,-220,l),
(64,-220,l),
(128,-112,l),
(128,14,l),
(14,14,l),
(14,14,l)
);
}
);
width = 128;
}
);
unicode = 806;
},
{
glyphname = ogonekcomb;
lastChange = "2023-10-17 10:46:46 +0000";
layers = (
{
anchors = (
{
name = _ogonek;
pos = (171,0);
}
);
layerId = "1C9972D2-AAA2-4EE5-9F28-188B121D2056";
shapes = (
{
closed = 1;
nodes = (
(47,-201,o),
(3,-171,o),
(3,-114,cs),
(3,-65,o),
(44,-34,o),
(83,0,c),
(171,0,l),
(107,-48,o),
(78,-70,o),
(79,-97,cs),
(80,-130,o),
(108,-129,o),
(159,-129,cs),
(174,-129,l),
(174,-201,l),
(139,-201,l)
);
}
);
width = 180;
}
);
unicode = 808;
},
{
glyphname = strokeshortcomb;
lastChange = "2023-10-17 08:58:28 +0000";
layers = (
{
layerId = "1C9972D2-AAA2-4EE5-9F28-188B121D2056";
shapes = (
{
closed = 1;
nodes = (
(441,277,l),
(441,353,l),
(96,353,l),
(96.44,277.356,l)
);
}
);
width = 540;
}
);
unicode = 821;
},
{
glyphname = strokelongcomb;
lastChange = "2023-10-04 19:05:45 +0000";
layers = (
{
layerId = "1C9972D2-AAA2-4EE5-9F28-188B121D2056";
shapes = (
{
closed = 1;
nodes = (
(721,277,l),
(721,354,l),
(61,354,l),
(61.44,277.356,l),
(61.44,277.356,l)
);
}
);
width = 780;
}
);
unicode = 822;
},
{
glyphname = slashshortcomb;
lastChange = "2023-10-04 19:05:45 +0000";
layers = (
{
layerId = "1C9972D2-AAA2-4EE5-9F28-188B121D2056";
shapes = (
{
closed = 1;
nodes = (
(398,428.957,l),
(398,514,l),
(38,307.679,l),
(38,223,l),
(38,223,l)
);
}
);
width = 436;
}
);
unicode = 823;
},
{
glyphname = slashlongcomb;
lastChange = "2023-10-04 19:05:45 +0000";
layers = (
{
layerId = "1C9972D2-AAA2-4EE5-9F28-188B121D2056";
shapes = (
{
closed = 1;
nodes = (
(29,61,l),
(659,691,l),
(720,629,l),
(90,0,l),
(90,0,l)
);
}
);
width = 720;
}
);
unicode = 824;
},
{
glyphname = y.ss01;
lastChange = "2024-08-06 15:58:12 +0000";
layers = (
{
guides = (
{
angle = 180;
pos = (338,-192);
},
{
angle = 180;
pos = (302,-202);
}
);
layerId = "1C9972D2-AAA2-4EE5-9F28-188B121D2056";
shapes = (
{
closed = 1;
nodes = (
(305,-44,o),
(295,-68,o),
(288,-85,cs),
(272,-119,o),
(242,-176,o),
(179,-195,cs),
(152,-203,o),
(93,-204,o),
(74,-196,c),
(74,-125,l),
(123,-129,o),
(162,-125,o),
(181,-104,cs),
(206,-75,o),
(220,-46,o),
(222,-17,c),
(12,520,l),
(108,520,l),
(266,99,l),
(268,99,l),
(415,520,l),
(507,520,l),
(317,-13,ls)
);
}
);
width = 519;
}
);
},
{
glyphname = "Be-cy";
kernLeft = N;
kernRight = P;
lastChange = "2024-08-06 15:47:13 +0000";
layers = (
{
layerId = "1C9972D2-AAA2-4EE5-9F28-188B121D2056";
shapes = (
{
closed = 1;
nodes = (
(156,423,l),
(156,343,l),
(328,343,ls),
(419,343,o),
(474,295,o),
(474,214,cs),
(474,133,o),
(419,82,o),
(328,82,cs),
(148,82,l),
(176,58,l),
(176,642,l),
(150,618,l),
(520,618,l),
(520,700,l),
(86,700,l),
(86,0,l),
(342,0,ls),
(477.397,0,o),
(564,89,o),
(566,214,cs),
(564,337,o),
(483,423,o),
(340,423,cs)
);
}
);
width = 606;
}
);
metricLeft = B;
unicode = 1041;
},
{
glyphname = "Ge-cy";
kernLeft = B;
kernRight = T;
lastChange = "2024-08-05 21:38:20 +0000";
layers = (
{
layerId = "1C9972D2-AAA2-4EE5-9F28-188B121D2056";
shapes = (
{
closed = 1;
nodes = (
(140,619,l),
(522,619,l),
(522,700,l),
(86,700,l),
(86,0,l),
(176,0,l),
(176,653,l)
);
}
);
width = 546;
}
);
metricLeft = B;
metricRight = T;
unicode = 1043;
},
{
glyphname = "Geupturn-cy";
lastChange = "2023-10-05 10:06:13 +0000";
layers = (
{
layerId = "1C9972D2-AAA2-4EE5-9F28-188B121D2056";
shapes = (
{
ref = "Ge-cy";
},
{
closed = 1;
nodes = (
(434,618,l),
(522,618,l),
(522,819,l),
(434,819,l)
);
}
);
width = 546;
}
);
unicode = 1168;
},
{
glyphname = "De-cy";
kernLeft = A;
kernRight = N;
lastChange = "2023-10-17 13:37:51 +0000";
layers = (
{
layerId = "1C9972D2-AAA2-4EE5-9F28-188B121D2056";
shapes = (
{
closed = 1;
nodes = (
(723,-134,l),
(723,83,l),
(30,83,l),
(30,-134,l),
(116,-134,l),
(116,35,l),
(81,0,l),
(672,0,l),
(637,35,l),
(637,-134,l)
);
},
{
closed = 1;
nodes = (
(188,81,l),
(233,126,o),
(249,199,o),
(257,343,cs),
(275,654,l),
(236,618,l),
(583,618,l),
(548,654,l),
(548,67,l),
(637,67,l),
(637,700,l),
(192,700,l),
(171,343,ls),
(163,200,o),
(139,119,o),
(82,81,c)
);
}
);
width = 753;
}
);
unicode = 1044;
},
{
glyphname = "Io-cy";
kernLeft = E;
kernRight = E;
lastChange = "2023-10-11 08:09:48 +0000";
layers = (
{
layerId = "1C9972D2-AAA2-4EE5-9F28-188B121D2056";
shapes = (
{
ref = E;
},
{
closed = 1;
nodes = (
(173,801,l),
(273,801,l),
(273,901,l),
(173,901,l)
);
},
{
closed = 1;
nodes = (
(345,801,l),
(445,801,l),
(445,901,l),
(345,901,l)
);
}
);
width = 592;
}
);
metricLeft = E;
metricRight = E;
unicode = 1025;
},
{
glyphname = "Zhe-cy";
kernLeft = X;
kernRight = K;
lastChange = "2024-04-05 10:29:51 +0000";
layers = (
{
layerId = "1C9972D2-AAA2-4EE5-9F28-188B121D2056";
shapes = (
{
closed = 1;
nodes = (
(816,700,l),
(512,364,l),
(824,0,l),
(934,0,l),
(598,396,l),
(598,336,l),
(928,700,l)
);
},
{
closed = 1;
nodes = (
(440,700,l),
(440,0,l),
(530,0,l),
(530,700,l)
);
},
{
closed = 1;
nodes = (
(146,0,l),
(460,364,l),
(154,700,l),
(42,700,l),
(374,334,l),
(374,394,l),
(36,0,l)
);
},
{
closed = 1;
nodes = (
(403,327,l),
(564,327,l),
(564,408,l),
(403,408,l)
);
}
);
width = 970;
}
);
metricLeft = W;
metricRight = W;
unicode = 1046;
},
{
glyphname = "Ze-cy";
kernLeft = O;
kernRight = B;
lastChange = "2024-08-06 15:52:46 +0000";
layers = (
{
layerId = "1C9972D2-AAA2-4EE5-9F28-188B121D2056";
shapes = (
{
closed = 1;
nodes = (
(148,524,l),
(161,592,o),
(224,629,o),
(308,629,cs),
(394,629,o),
(457,590,o),
(457,522,cs),
(457,456,o),
(399,406,o),
(308,406,cs),
(225,406,l),
(225,325,l),
(314,325,ls),
(409,325,o),
(470,276,o),
(470,196,cs),
(470,120,o),
(411.556,72,o),
(314,72,cs),
(218.581,72,o),
(155.307,118.554,o),
(141,186,c),
(52,186,l),
(65.724,66.407,o),
(166.133,-11,o),
(314,-11,cs),
(459.685,-11,o),
(561,73,o),
(561,195,cs),
(561,289,o),
(497,354,o),
(435,370,c),
(486,388,o),
(548,446,o),
(548,525,cs),
(548,640,o),
(446,712,o),
(308,712,cs),
(179,712,o),
(74,644,o),
(60,524,c)
);
}
);
width = 604;
}
);
unicode = 1047;
},
{
glyphname = "Ii-cy";
kernLeft = N;
kernRight = N;
lastChange = "2023-10-04 19:05:45 +0000";
layers = (
{
layerId = "1C9972D2-AAA2-4EE5-9F28-188B121D2056";
shapes = (
{
closed = 1;
nodes = (
(558,0,l),
(647,0,l),
(646,700,l),
(557,700,l),
(280,296,ls),
(234,229.333,o),
(199.333,174.667,o),
(176,132,c),
(174,132,l),
(173.333,174,o),
(173.333,249.333,o),
(174,358,cs),
(176,700,l),
(88,700,l),
(88,0,l),
(174,0,l),
(452,406,ls),
(500.667,477.333,o),
(535.333,537.333,o),
(556,586,c),
(560,586,l),
(558.667,540.667,o),
(558,468.667,o),
(558,370,cs)
);
}
);
width = 735;
}
);
unicode = 1048;
},
{
glyphname = "El-cy";
kernLeft = A;
kernRight = H;
lastChange = "2024-08-05 19:54:22 +0000";
layers = (
{
layerId = "1C9972D2-AAA2-4EE5-9F28-188B121D2056";
shapes = (
{
closed = 1;
nodes = (
(10,79,l),
(10,-4,l),
(36,-5,ls),
(179,-10,o),
(220,95,o),
(229,230,cs),
(258,656,l),
(218,618,l),
(553,618,l),
(518,654,l),
(518,0,l),
(607,0,l),
(607,700,l),
(176,700,l),
(143,236,ls),
(138,159,o),
(123,115,o),
(91,94,cs),
(74,83,o),
(52,76,o),
(25,78,cs)
);
}
);
width = 693;
}
);
metricRight = H;
unicode = 1051;
},
{
glyphname = "Pe-cy";
kernLeft = H;
kernRight = H;
lastChange = "2023-10-18 07:33:13 +0000";
layers = (
{
layerId = "1C9972D2-AAA2-4EE5-9F28-188B121D2056";
shapes = (
{
closed = 1;
nodes = (
(638,700,l),
(86,700,l),
(86,0,l),
(176,0,l),
(176,662,l),
(130,618,l),
(594,618,l),
(548,662,l),
(548,0,l),
(638,0,l)
);
}
);
width = 724;
}
);
metricLeft = H;
metricRight = H;
unicode = 1055;
},
{
glyphname = "U-cy";
kernLeft = X;
kernRight = Y;
lastChange = "2023-10-05 10:07:13 +0000";
layers = (
{
layerId = "1C9972D2-AAA2-4EE5-9F28-188B121D2056";
shapes = (
{
closed = 1;
nodes = (
(522,700,l),
(381,411,ls),
(349.667,347,o),
(331.333,307.333,o),
(326,292,c),
(323,292,l),
(319,300.667,o),
(298,341.667,o),
(260,415,cs),
(112,700,l),
(12,700,l),
(275,200,l),
(178,0,l),
(276,0,l),
(620,700,l)
);
}
);
width = 632;
}
);
metricLeft = y;
metricRight = y;
unicode = 1059;
},
{
glyphname = "Ef-cy";
kernLeft = O;
kernRight = O;
lastChange = "2023-10-18 07:33:29 +0000";
layers = (
{
layerId = "1C9972D2-AAA2-4EE5-9F28-188B121D2056";
shapes = (
{
closed = 1;
nodes = (
(452,700,l),
(364,700,l),
(364,651,l),
(245,647,o),
(142.333,601.167,o),
(85,512.5,cs),
(56.333,468.167,o),
(42,416,o),
(42,356,cs),
(42,177.422,o),
(174,66,o),
(364,62,c),
(364,0,l),
(452,0,l),
(452,62,l),
(641,66,o),
(772.06,177.501,o),
(774,356,cs),
(772.667,476,o),
(711.5,567.333,o),
(613.5,614,cs),
(564.5,637.333,o),
(511,649,o),
(452,651,c)
);
},
{
closed = 1;
nodes = (
(364,144,l),
(228,144,o),
(132,222.779,o),
(132,356,cs),
(132,486.576,o),
(225,565,o),
(364,569,c)
);
},
{
closed = 1;
nodes = (
(452,569,l),
(591,567,o),
(681.983,485.114,o),
(684,356,cs),
(681.949,222.676,o),
(586,144,o),
(452,144,c)
);
}
);
width = 816;
}
);
metricLeft = O;
metricRight = O;
unicode = 1060;
},
{
glyphname = "Che-cy";
kernLeft = M;
kernRight = N;
lastChange = "2023-10-18 07:33:49 +0000";
layers = (
{
background = {
shapes = (
{
closed = 1;
nodes = (
(654,0,l),
(654,720,l),
(516,720,l),
(516,360,l),
(532,420,l),
(506,387,o),
(454,360,o),
(378,360,cs),
(342,360,o),
(301,366,o),
(276,402,cs),
(245,444,o),
(245,514,o),
(246,554,cs),
(246,720,l),
(108,720,l),
(108,524,ls),
(107,468,o),
(107,383,o),
(160,314,cs),
(207,251,o),
(275,232,o),
(352,232,cs),
(424,232,o),
(498,250,o),
(536,284,c),
(516,314,l),
(516,0,l)
);
}
);
};
layerId = "1C9972D2-AAA2-4EE5-9F28-188B121D2056";
shapes = (
{
closed = 1;
nodes = (
(548,416,l),
(508,374.667,o),
(444,344.667,o),
(360,346,cs),
(243.829,343.849,o),
(176,409,o),
(176,528,cs),
(176,700,l),
(86,700,l),
(86,526,ls),
(86,410,o),
(137,329.667,o),
(217,291,cs),
(257,271.667,o),
(302,262,o),
(352,262,cs),
(444,262,o),
(506,286,o),
(550,330,c)
);
},
{
closed = 1;
nodes = (
(604,700,l),
(516,700,l),
(516,0,l),
(604,0,l)
);
}
);
width = 690;
}
);
metricLeft = M;
metricRight = M;
unicode = 1063;
},
{
glyphname = "Tse-cy";
kernLeft = H;
kernRight = "tse-cy";
lastChange = "2023-10-05 10:07:30 +0000";
layers = (
{
layerId = "1C9972D2-AAA2-4EE5-9F28-188B121D2056";
shapes = (
{
closed = 1;
nodes = (
(546,700,l),
(546,50,l),
(634,50,l),
(634,700,l)
);
},
{
closed = 1;
nodes = (
(720,-134,l),
(720,84,l),
(140,84,l),
(176,50,l),
(176,700,l),
(86,700,l),
(86,0,l),
(670,0,l),
(634,36,l),
(634,-134,l)
);
}
);
width = 736;
}
);
metricLeft = H;
unicode = 1062;
},
{
glyphname = "Sha-cy";
kernLeft = H;
kernRight = H;
lastChange = "2023-10-17 12:19:06 +0000";
layers = (
{
layerId = "1C9972D2-AAA2-4EE5-9F28-188B121D2056";
shapes = (
{
closed = 1;
nodes = (
(442,700,l),
(442,48,l),
(530,48,l),
(530,700,l)
);
},
{
closed = 1;
nodes = (
(798,50,l),
(834,84,l),
(140,84,l),
(176,50,l),
(176,700,l),
(86,700,l),
(86,0,l),
(888,0,l),
(888,700,l),
(798,700,l)
);
}
);
width = 974;
}
);
metricLeft = H;
metricRight = H;
unicode = 1064;
},
{
glyphname = "Shcha-cy";
kernLeft = H;
kernRight = "tse-cy";
lastChange = "2023-10-17 12:19:20 +0000";
layers = (
{
layerId = "1C9972D2-AAA2-4EE5-9F28-188B121D2056";
shapes = (
{
closed = 1;
nodes = (
(970,-132,l),
(970,83,l),
(723,83,l),
(723,0,l),
(875,0,l),
(875,-132,l)
);
},
{
ref = "Sha-cy";
}
);
width = 1014;
}
);
metricLeft = H;
unicode = 1065;
},
{
glyphname = "Dzhe-cy";
lastChange = "2023-10-18 07:34:53 +0000";
layers = (
{
layerId = "1C9972D2-AAA2-4EE5-9F28-188B121D2056";
shapes = (
{
closed = 1;
nodes = (
(546,700,l),
(546,50,l),
(634,50,l),
(634,700,l)
);
},
{
closed = 1;
nodes = (
(634,84,l),
(140,84,l),
(176,50,l),
(176,700,l),
(86,700,l),
(86,0,l),
(634,0,l)
);
},
{
closed = 1;
nodes = (
(325,-134,l),
(411,-134,l),
(411,84,l),
(325,84,l)
);
}
);
width = 720;
}
);
unicode = 1039;
},
{
glyphname = "Softsign-cy";
kernLeft = H;
kernRight = B;
lastChange = "2024-04-05 10:29:48 +0000";
layers = (
{
layerId = "1C9972D2-AAA2-4EE5-9F28-188B121D2056";
shapes = (
{
closed = 1;
nodes = (
(132,446,l),
(132,364,l),
(322,364,ls),
(417.327,364,o),
(474,307.996,o),
(474,224,cs),
(474,137.333,o),
(415.333,80.667,o),
(322,82,cs),
(148,82,l),
(176,50,l),
(176,700,l),
(86,700,l),
(86,0,l),
(334,0,ls),
(468.279,0,o),
(563.871,91.982,o),
(566,224,cs),
(563.857,354.726,o),
(470.407,444.051,o),
(332,446,cs)
);
}
);
width = 614;
}
);
metricLeft = H;
metricRight = B;
unicode = 1068;
},
{
glyphname = "Hardsign-cy";
kernLeft = T;
kernRight = B;
lastChange = "2023-10-04 19:05:45 +0000";
layers = (
{
layerId = "1C9972D2-AAA2-4EE5-9F28-188B121D2056";
shapes = (
{
closed = 1;
nodes = (
(236,445,l),
(236,364,l),
(425,364,ls),
(521.812,364,o),
(578,308.421,o),
(578,223,cs),
(578,137.667,o),
(519.667,81,o),
(425,81,cs),
(251,81,l),
(279,50,l),
(279,700,l),
(35,700,l),
(35,618,l),
(216,618,l),
(190,648,l),
(190,0,l),
(437,0,ls),
(572.549,0,o),
(669,91.873,o),
(669,223,cs),
(669,354.697,o),
(574.973,445,o),
(435,445,cs)
);
}
);
width = 673;
}
);
unicode = 1066;
},
{
glyphname = "Ereversed-cy";
kernLeft = X;
kernRight = O;
lastChange = "2023-10-18 07:39:59 +0000";
layers = (
{
layerId = "1C9972D2-AAA2-4EE5-9F28-188B121D2056";
shapes = (
{
closed = 1;
nodes = (
(265,400,l),
(265,320,l),
(616,320,l),
(616,400,l)
);
},
{
closed = 1;
nodes = (
(42,210,l),
(71,72,o),
(188,-9,o),
(332,-11,cs),
(536,-9,o),
(648,150,o),
(650,352,cs),
(648,560,o),
(533,710,o),
(334,712,cs),
(162,710,o),
(67,608,o),
(46,496,c),
(134,496,l),
(161.159,573.298,o),
(227.845,632,o),
(334,632,cs),
(464.371,632,o),
(558,529.618,o),
(558,356,cs),
(558,176.789,o),
(463.934,71,o),
(334,71,cs),
(218,71,o),
(155,142,o),
(132,210,c)
);
}
);
width = 692;
}
);
metricLeft = O;
metricRight = O;
unicode = 1069;
},
{
glyphname = "Tshe-cy";
lastChange = "2023-10-05 10:08:13 +0000";
layers = (
{
layerId = "1C9972D2-AAA2-4EE5-9F28-188B121D2056";
shapes = (
{
ref = T;
},
{
closed = 1;
nodes = (
(737,304,o),
(694,442,o),
(510,442,cs),
(442,442,o),
(403,424,o),
(346,379,c),
(344,379,l),
(344,533,l),
(266,533,l),
(266,0,l),
(296,74,l),
(296,144,ls),
(296,236,o),
(353,339,o),
(475,360,cs),
(585,379,o),
(649,315,o),
(649,189,cs),
(649,0,l),
(737,0,l),
(737,189,l)
);
}
);
width = 762;
}
);
unicode = 1035;
},
{
glyphname = "Iu-cy";
kernLeft = H;
kernRight = O;
lastChange = "2023-10-05 10:08:24 +0000";
layers = (
{
layerId = "1C9972D2-AAA2-4EE5-9F28-188B121D2056";
shapes = (
{
closed = 1;
nodes = (
(86,0,l),
(176,0,l),
(176,704,l),
(86,704,l)
);
},
{
closed = 1;
nodes = (
(318,404,l),
(156,404,l),
(156,320,l),
(318,320,l)
);
},
{
closed = 1;
nodes = (
(416.342,714.045,o),
(286,571.239,o),
(286,352,cs),
(286,132.761,o),
(416.342,-10.045,o),
(606,-12,cs),
(792.172,-10.04,o),
(924,132.955,o),
(924,352,cs),
(924,571.045,o),
(792.172,714.04,o),
(606,716,cs)
);
},
{
closed = 1;
nodes = (
(463.395,72,o),
(375.992,187.363,o),
(378,352,cs),
(375.992,516.637,o),
(463.395,632,o),
(606,632,cs),
(741.463,632,o),
(831.912,523.18,o),
(834,352,cs),
(831.912,180.82,o),
(741.463,72,o),
(606,72,cs)
);
}
);
width = 966;
}
);
metricLeft = H;
metricRight = O;
unicode = 1070;
},
{
glyphname = "Ia-cy";
kernLeft = N;
kernRight = N;
lastChange = "2023-10-18 07:36:11 +0000";
layers = (
{
layerId = "1C9972D2-AAA2-4EE5-9F28-188B121D2056";
shapes = (
{
closed = 1;
nodes = (
(312,287,l),
(208,287,l),
(24,0,l),
(129,0,l)
);
},
{
closed = 1;
nodes = (
(468,256,l),
(468,336,l),
(299,336,ls),
(202,336,o),
(144,394,o),
(144,478,cs),
(144,561,o),
(201,619,o),
(298,619,cs),
(472,619,l),
(445,646,l),
(445,0,l),
(534,0,l),
(534,700,l),
(287,700,ls),
(149,700,o),
(53,611,o),
(53,478,cs),
(53,345,o),
(152,256,o),
(283,256,cs)
);
}
);
width = 620;
}
);
metricRight = H;
unicode = 1071;
},
{
glyphname = "Dje-cy";
lastChange = "2023-10-17 11:33:56 +0000";
layers = (
{
layerId = "1C9972D2-AAA2-4EE5-9F28-188B121D2056";
shapes = (
{
alignment = -1;
ref = T;
},
{
closed = 1;
nodes = (
(749,351,o),
(658,441,o),
(534,441,cs),
(475,441,o),
(400,421,o),
(347,368,c),
(345,368,l),
(345,472,l),
(276,472,l),
(276,0,l),
(336,0,l),
(295,95,o),
(307,179,o),
(343,250,cs),
(427,416,o),
(650,395,o),
(667,222,cs),
(672,172,o),
(667,25,o),
(477,49,c),
(477,-28,l),
(692,-68,o),
(765,96,o),
(757,223,cs)
);
}
);
width = 800;
}
);
metricLeft = T;
metricRight = O;
unicode = 1026;
},
{
glyphname = "U-cy.ss01";
lastChange = "2024-04-05 14:48:13 +0000";
layers = (
{
layerId = "1C9972D2-AAA2-4EE5-9F28-188B121D2056";
shapes = (
{
closed = 1;
nodes = (
(258,-10,o),
(308,55,o),
(365,189,cs),
(584,700,l),
(486,700,l),
(303,249,l),
(301,249,l),
(110,700,l),
(12,700,l),
(252,148,l),
(224,97,o),
(192,71,o),
(140,71,cs),
(119,71,o),
(106,74,o),
(100,75,c),
(100,-4,l),
(106,-7,o),
(120,-10,o),
(140,-10,cs)
);
}
);
width = 596;
}
);
metricLeft = y;
metricRight = y;
},
{
glyphname = "be-cy";
kernLeft = "be-cy";
kernRight = o;
lastChange = "2024-04-10 08:19:32 +0000";
layers = (
{
layerId = "1C9972D2-AAA2-4EE5-9F28-188B121D2056";
shapes = (
{
closed = 1;
nodes = (
(205,66,o),
(140,140,o),
(142,252,cs),
(140,361,o),
(207,434,o),
(302,436,cs),
(395,434,o),
(454,353,o),
(456,248,cs),
(454,138,o),
(392,66,o),
(300,68,cs)
);
},
{
closed = 1;
nodes = (
(367,635,ls),
(428,639,o),
(488,653,o),
(505,668,c),
(505,747,l),
(460,728,o),
(408,720,o),
(366,716,cs),
(332,713,l),
(294,711,ls),
(113,701,o),
(44,523,o),
(51,296,cs),
(57,98,o),
(151,-10,o),
(304,-12,cs),
(444,-10,o),
(541,95,o),
(543,248,cs),
(541,413,o),
(443,512,o),
(312,512,cs),
(238,512,o),
(178,476,o),
(141,424,c),
(138,424,l),
(152,533,o),
(199,622,o),
(310,631,cs),
(334,633,l)
);
}
);
width = 581;
}
);
metricRight = o;
unicode = 1073;
},
{
glyphname = "ve-cy";
kernLeft = n;
kernRight = ve;
lastChange = "2024-08-06 15:32:49 +0000";
layers = (
{
layerId = "1C9972D2-AAA2-4EE5-9F28-188B121D2056";
shapes = (
{
closed = 1;
nodes = (
(372,275,l),
(405.333,291,o),
(453,332,o),
(454,388,cs),
(453,467,o),
(386,520,o),
(285,520,cs),
(64,520,l),
(64,0,l),
(290,0,ls),
(394,0,o),
(456.667,61.333,o),
(458,148,cs),
(456.667,214.667,o),
(418.667,259.667,o),
(372,273,c)
);
},
{
closed = 1;
nodes = (
(114,76,l),
(148,38,l),
(148,482,l),
(114,444,l),
(277,444,ls),
(329,444,o),
(368,423,o),
(368,379,cs),
(368,331,o),
(328,304,o),
(277,304,cs),
(122,304,l),
(122,230,l),
(280,230,ls),
(340,230,o),
(370.667,203.333,o),
(372,154,cs),
(370.667,106,o),
(336,73.333,o),
(280,76,c)
);
}
);
width = 500;
},
{
associatedMasterId = "1C9972D2-AAA2-4EE5-9F28-188B121D2056";
layerId = "A2873047-0ED6-4C67-9B4D-3870B51BD5C6";
name = "new Layer";
width = 600;
}
);
unicode = 1074;
},
{
glyphname = "ge-cy";
kernLeft = r;
kernRight = r;
lastChange = "2024-04-05 15:42:19 +0000";
layers = (
{
layerId = "1C9972D2-AAA2-4EE5-9F28-188B121D2056";
shapes = (
{
closed = 1;
nodes = (
(150,478,l),
(116,444,l),
(398,444,l),
(398,520,l),
(64,520,l),
(64,0,l),
(150,0,l)
);
}
);
width = 432;
}
);
metricLeft = r;
unicode = 1075;
},
{
glyphname = "geupturn-cy";
lastChange = "2023-10-05 10:08:44 +0000";
layers = (
{
layerId = "1C9972D2-AAA2-4EE5-9F28-188B121D2056";
shapes = (
{
ref = "ge-cy";
},
{
closed = 1;
nodes = (
(398,594,l),
(312,594,l),
(312,444,l),
(398,444,l)
);
}
);
width = 432;
}
);
unicode = 1169;
},
{
glyphname = "de-cy";
kernLeft = o;
kernRight = v;
lastChange = "2023-10-04 20:39:17 +0000";
layers = (
{
layerId = "1C9972D2-AAA2-4EE5-9F28-188B121D2056";
shapes = (
{
closed = 1;
nodes = (
(574,-128,l),
(574,78,l),
(15,78,l),
(15,-128,l),
(98,-128,l),
(98,35,l),
(64,0,l),
(525,0,l),
(491,35,l),
(491,-128,l)
);
},
{
closed = 1;
nodes = (
(416,480,l),
(414,60,l),
(500,60,l),
(502,520,l),
(140,520,l),
(118,251,ls),
(110,151,o),
(84.667,82.333,o),
(46,73,c),
(151,73,l),
(184.333,105,o),
(193,157,o),
(201,249,cs),
(220,480,l),
(182,444,l),
(452,444,l)
);
}
);
width = 597;
}
);
unicode = 1076;
},
{
glyphname = "io-cy";
kernLeft = e;
kernRight = e;
lastChange = "2023-10-05 10:08:52 +0000";
layers = (
{
guides = (
{
pos = (66,607);
},
{
pos = (52,758);
}
);
layerId = "1C9972D2-AAA2-4EE5-9F28-188B121D2056";
shapes = (
{
ref = e;
},
{
closed = 1;
nodes = (
(140,629,l),
(240,629,l),
(240,729,l),
(140,729,l)
);
},
{
closed = 1;
nodes = (
(312,629,l),
(412,629,l),
(412,729,l),
(312,729,l)
);
}
);
width = 534;
}
);
metricLeft = e;
metricRight = e;
unicode = 1105;
},
{
glyphname = "zhe-cy";
kernLeft = x;
kernRight = x;
lastChange = "2023-10-17 11:35:27 +0000";
layers = (
{
layerId = "1C9972D2-AAA2-4EE5-9F28-188B121D2056";
shapes = (
{
closed = 1;
nodes = (
(700,520,l),
(596,520,l),
(380,274,l),
(598,0,l),
(704,0,l),
(472,292,l),
(472,260,l)
);
},
{
closed = 1;
nodes = (
(330,274,l),
(114,520,l),
(10,520,l),
(240,258,l),
(240,290,l),
(8,0,l),
(114,0,l)
);
},
{
closed = 1;
nodes = (
(398,0,l),
(398,520,l),
(314,520,l),
(314,0,l)
);
},
{
closed = 1;
nodes = (
(258,240,l),
(457,240,l),
(457,313,l),
(258,313,l)
);
}
);
width = 712;
}
);
unicode = 1078;
},
{
glyphname = "ze-cy";
kernLeft = x;
kernRight = "ze-cy";
lastChange = "2023-10-17 11:35:45 +0000";
layers = (
{
background = {
shapes = (
{
closed = 1;
nodes = (
(86,378,l),
(103,389,o),
(123,401,o),
(140,408,cs),
(163,419,o),
(197,429,o),
(228,430,cs),
(244,429,o),
(259,426,o),
(270,420,cs),
(288,410,o),
(293,395,o),
(294,380,cs),
(293,360,o),
(285,339,o),
(248,334,cs),
(232,332,o),
(208,331,o),
(192,332,cs),
(160,332,l),
(160,226,l),
(192,226,ls),
(210,225,o),
(241,226,o),
(258,226,cs),
(287,223,o),
(312,205,o),
(312,174,cs),
(312,155,o),
(302,136,o),
(282,124,cs),
(267,116,o),
(252,112,o),
(230,112,cs),
(206,112,o),
(170,117,o),
(142,136,cs),
(128,143,o),
(106,161,o),
(94,174,c),
(-14,102,l),
(4,75,o),
(45,38,o),
(80,20,cs),
(117,-1,o),
(167,-15,o),
(228,-16,cs),
(269,-15,o),
(324,-8,o),
(372,22,cs),
(426,56,o),
(451,105,o),
(452,162,cs),
(451,214,o),
(430,256,o),
(396,284,c),
(422,319,o),
(433,355,o),
(434,392,cs),
(433,446,o),
(409,490,o),
(368,518,cs),
(327,545,o),
(267,555,o),
(226,556,cs),
(183,555,o),
(142,544,o),
(108,530,cs),
(66,511,o),
(40,494,o),
(12,470,c)
);
}
);
};
layerId = "1C9972D2-AAA2-4EE5-9F28-188B121D2056";
shapes = (
{
closed = 1;
nodes = (
(116,370,l),
(126.667,414,o),
(167.333,450.667,o),
(230,452,cs),
(287.333,450.667,o),
(326,416,o),
(326,368,cs),
(326,321.333,o),
(292,294,o),
(232,294,cs),
(158,294,l),
(158,220,l),
(236,220,ls),
(308,220,o),
(346,195.333,o),
(346,146,cs),
(346,95.333,o),
(302.667,64.667,o),
(236,66,cs),
(169.333,64.667,o),
(122.667,93.333,o),
(112,144,c),
(26,144,l),
(37.912,44.73,o),
(122.031,-9.964,o),
(234,-12,cs),
(351.867,-9.895,o),
(432,52.619,o),
(432,146,cs),
(432,212,o),
(389,249,o),
(344,263,c),
(344,266,l),
(381,281,o),
(411,317,o),
(412,372,cs),
(409.943,466.625,o),
(336.675,525.946,o),
(234,528,cs),
(131.333,526.667,o),
(46.667,468.667,o),
(36,370,c)
);
}
);
width = 474;
}
);
unicode = 1079;
},
{
glyphname = "ii-cy";
kernLeft = n;
kernRight = u;
lastChange = "2023-10-05 07:02:35 +0000";
layers = (
{
layerId = "1C9972D2-AAA2-4EE5-9F28-188B121D2056";
shapes = (
{
closed = 1;
nodes = (
(490,0,l),
(490,520,l),
(406,520,l),
(122,96,l),
(148,96,l),
(148,520,l),
(64,520,l),
(64,0,l),
(148,0,l),
(432,420,l),
(406,420,l),
(406,0,l)
);
}
);
width = 554;
}
);
metricLeft = n;
metricRight = u;
unicode = 1080;
},
{
glyphname = "ka-cy";
kernLeft = k;
kernRight = k;
lastChange = "2023-10-17 11:34:58 +0000";
layers = (
{
layerId = "1C9972D2-AAA2-4EE5-9F28-188B121D2056";
shapes = (
{
closed = 1;
nodes = (
(64,0,l),
(150,0,l),
(150,520,l),
(64,520,l)
);
},
{
closed = 1;
nodes = (
(368,520,l),
(128,276,l),
(368,0,l),
(480,0,l),
(228,290,l),
(228,266,l),
(476,520,l)
);
},
{
closed = 1;
nodes = (
(110,240,l),
(201,240,l),
(201,313,l),
(110,313,l)
);
}
);
width = 486;
}
);
metricLeft = k;
metricRight = k;
unicode = 1082;
},
{
glyphname = "el-cy";
kernLeft = o;
kernRight = u;
lastChange = "2023-10-18 07:38:04 +0000";
layers = (
{
layerId = "1C9972D2-AAA2-4EE5-9F28-188B121D2056";
shapes = (
{
closed = 1;
nodes = (
(12,77,l),
(12,-1,l),
(36,-2,ls),
(154,-7,o),
(187,80,o),
(196,190,cs),
(220,480,l),
(182,444,l),
(436,444,l),
(402,480,l),
(402,0,l),
(488,0,l),
(488,520,l),
(140,520,l),
(114,196,ls),
(107,105,o),
(86,72,o),
(26,76,cs)
);
}
);
width = 552;
}
);
metricRight = u;
unicode = 1083;
},
{
glyphname = "em-cy";
kernLeft = m;
kernRight = u;
lastChange = "2023-10-05 10:09:23 +0000";
layers = (
{
layerId = "1C9972D2-AAA2-4EE5-9F28-188B121D2056";
shapes = (
{
closed = 1;
nodes = (
(147,259,o),
(146,311.667,o),
(144,377,c),
(147,377,l),
(315,0,l),
(387,0,l),
(551,372,l),
(554,372,l),
(553.333,307.333,o),
(553,266.333,o),
(553,249,cs),
(553,0,l),
(637,0,l),
(637,520,l),
(514,520,l),
(352,102,l),
(349,102,l),
(167,520,l),
(64,520,l),
(64,0,l),
(147,0,l),
(147,219,l)
);
}
);
width = 701;
}
);
metricLeft = m;
metricRight = u;
unicode = 1084;
},
{
glyphname = "en-cy";
kernLeft = n;
kernRight = u;
lastChange = "2023-10-05 10:09:29 +0000";
layers = (
{
layerId = "1C9972D2-AAA2-4EE5-9F28-188B121D2056";
shapes = (
{
closed = 1;
nodes = (
(64,0,l),
(150,0,l),
(150,520,l),
(64,520,l)
);
},
{
closed = 1;
nodes = (
(484,520,l),
(398,520,l),
(398,0,l),
(484,0,l)
);
},
{
closed = 1;
nodes = (
(134,238,l),
(414,238,l),
(414,316,l),
(134,316,l)
);
}
);
width = 548;
}
);
metricLeft = m;
metricRight = u;
unicode = 1085;
},
{
glyphname = "pe-cy";
kernLeft = n;
kernRight = u;
lastChange = "2023-10-05 10:09:33 +0000";
layers = (
{
layerId = "1C9972D2-AAA2-4EE5-9F28-188B121D2056";
shapes = (
{
closed = 1;
nodes = (
(482,520,l),
(64,520,l),
(64,0,l),
(150,0,l),
(150,478,l),
(114,444,l),
(430,444,l),
(396,478,l),
(396,0,l),
(482,0,l)
);
}
);
width = 541;
}
);
metricLeft = n;
metricRight = n;
unicode = 1087;
},
{
glyphname = "te-cy";
kernLeft = te;
kernRight = r;
lastChange = "2023-10-17 12:54:08 +0000";
layers = (
{
layerId = "1C9972D2-AAA2-4EE5-9F28-188B121D2056";
shapes = (
{
closed = 1;
nodes = (
(280,0,l),
(282,474,l),
(196,474,l),
(194,0,l)
);
},
{
closed = 1;
nodes = (
(26,520,l),
(26,444,l),
(452,444,l),
(452,520,l)
);
}
);
width = 478;
}
);
unicode = 1090;
},
{
glyphname = "ef-cy";
kernLeft = o;
kernRight = o;
lastChange = "2024-04-05 14:55:31 +0000";
layers = (
{
guides = (
{
angle = 180;
pos = (342,-192);
}
);
layerId = "1C9972D2-AAA2-4EE5-9F28-188B121D2056";
shapes = (
{
closed = 1;
nodes = (
(384,704,l),
(300,704,l),
(300,532,l),
(144,528,o),
(38,427,o),
(38,255,cs),
(38,102,o),
(146,-8,o),
(300,-12,c),
(300,-192,l),
(384,-192,l),
(384,-12,l),
(529,-8,o),
(644,97,o),
(644,255,cs),
(644,375,o),
(596.833,447.5,o),
(517.5,493.5,cs),
(477.833,516.5,o),
(433,532,o),
(384,532,c)
);
},
{
closed = 1;
nodes = (
(300,66,l),
(197,68,o),
(124,146,o),
(126,255,cs),
(124,401,o),
(213,449,o),
(300,454,c)
);
},
{
closed = 1;
nodes = (
(556,146,o),
(485,68,o),
(384,66,c),
(384,454,l),
(461,452,o),
(556,407,o),
(558,255,cs)
);
}
);
width = 682;
}
);
metricLeft = o;
metricRight = o;
unicode = 1092;
},
{
glyphname = "che-cy";
kernLeft = n;
kernRight = u;
lastChange = "2023-10-05 10:09:50 +0000";
layers = (
{
layerId = "1C9972D2-AAA2-4EE5-9F28-188B121D2056";
shapes = (
{
closed = 1;
nodes = (
(436,520,l),
(350,520,l),
(350,0,l),
(436,0,l)
);
},
{
closed = 1;
nodes = (
(384,310,l),
(348,276.667,o),
(310.667,256.667,o),
(248,258,cs),
(170.142,256.004,o),
(121.992,299.664,o),
(124,384,cs),
(124,520,l),
(38,520,l),
(38,382,ls),
(36.046,251.103,o),
(113.767,177.929,o),
(238,180,cs),
(310,178.667,o),
(356,202.667,o),
(388,236,c)
);
}
);
width = 500;
}
);
metricLeft = d;
metricRight = u;
unicode = 1095;
},
{
glyphname = "tse-cy";
kernLeft = n;
kernRight = "tse-cy";
lastChange = "2023-10-05 10:09:56 +0000";
layers = (
{
layerId = "1C9972D2-AAA2-4EE5-9F28-188B121D2056";
shapes = (
{
closed = 1;
nodes = (
(392,520,l),
(392,58,l),
(478,58,l),
(478,520,l)
);
},
{
closed = 1;
nodes = (
(552,-128,l),
(552,78,l),
(114,78,l),
(150,44,l),
(150,520,l),
(64,520,l),
(64,0,l),
(504,0,l),
(470,36,l),
(470,-128,l)
);
}
);
width = 572;
}
);
metricLeft = n;
unicode = 1094;
},
{
glyphname = "sha-cy";
kernLeft = n;
kernRight = u;
lastChange = "2023-10-05 10:10:02 +0000";
layers = (
{
layerId = "1C9972D2-AAA2-4EE5-9F28-188B121D2056";
shapes = (
{
closed = 1;
nodes = (
(344,520,l),
(344,50,l),
(430,50,l),
(430,520,l)
);
},
{
closed = 1;
nodes = (
(624,44,l),
(658,78,l),
(114,78,l),
(150,44,l),
(150,520,l),
(64,520,l),
(64,0,l),
(710,0,l),
(710,520,l),
(624,520,l)
);
}
);
width = 774;
}
);
metricLeft = m;
metricRight = m;
unicode = 1096;
},
{
glyphname = "shcha-cy";
kernLeft = n;
kernRight = "tse-cy";
lastChange = "2023-10-18 07:39:03 +0000";
layers = (
{
layerId = "1C9972D2-AAA2-4EE5-9F28-188B121D2056";
shapes = (
{
closed = 1;
nodes = (
(784,-154,l),
(784,72,l),
(640,72,l),
(638,0,l),
(712,0,l),
(710,-154,l)
);
},
{
ref = "sha-cy";
}
);
width = 804;
}
);
metricLeft = m;
unicode = 1097;
},
{
glyphname = "dzhe-cy";
lastChange = "2023-10-05 10:10:12 +0000";
layers = (
{
layerId = "1C9972D2-AAA2-4EE5-9F28-188B121D2056";
shapes = (
{
closed = 1;
nodes = (
(392,520,l),
(392,58,l),
(478,58,l),
(478,520,l)
);
},
{
closed = 1;
nodes = (
(478,78,l),
(114,78,l),
(150,44,l),
(150,520,l),
(64,520,l),
(64,0,l),
(478,0,l)
);
},
{
closed = 1;
nodes = (
(317,63,l),
(231,63,l),
(231,-87,l),
(317,-87,l)
);
}
);
width = 542;
}
);
unicode = 1119;
},
{
glyphname = "softsign-cy";
kernLeft = n;
kernRight = b;
lastChange = "2023-10-04 19:05:45 +0000";
layers = (
{
layerId = "1C9972D2-AAA2-4EE5-9F28-188B121D2056";
shapes = (
{
closed = 1;
nodes = (
(140,342,l),
(140,266,l),
(252,266,ls),
(314.667,264.667,o),
(352.667,228,o),
(354,172,cs),
(352.667,116,o),
(314.667,76,o),
(252,76,cs),
(114,76,l),
(150,42,l),
(150,520,l),
(64,520,l),
(64,0,l),
(262,0,ls),
(363.894,0,o),
(437.898,69.014,o),
(440,172,cs),
(437.903,274.746,o),
(365.568,342,o),
(262,342,cs)
);
}
);
width = 476;
}
);
metricLeft = n;
unicode = 1100;
},
{
glyphname = "yeru-cy";
kernLeft = n;
kernRight = u;
lastChange = "2023-10-05 10:10:23 +0000";
layers = (
{
layerId = "1C9972D2-AAA2-4EE5-9F28-188B121D2056";
shapes = (
{
closed = 1;
nodes = (
(536,0,l),
(626,0,l),
(626,520,l),
(536,520,l)
);
},
{
ref = "softsign-cy";
}
);
width = 685;
}
);
metricLeft = n;
metricRight = n;
unicode = 1099;
},
{
glyphname = "hardsign-cy";
kernRight = b;
lastChange = "2023-10-18 07:39:18 +0000";
layers = (
{
layerId = "1C9972D2-AAA2-4EE5-9F28-188B121D2056";
shapes = (
{
closed = 1;
nodes = (
(246,341,l),
(246,265,l),
(358,265,ls),
(422,265,o),
(460,229,o),
(460,173,cs),
(460,117,o),
(422,76,o),
(358,76,cs),
(221,76,l),
(256,41,l),
(256,520,l),
(32,520,l),
(32,444,l),
(206,444,l),
(170,480,l),
(170,0,l),
(368,0,ls),
(471.461,0,o),
(546,70,o),
(546,173,cs),
(546,273,o),
(476,341,o),
(369,341,c)
);
}
);
width = 584;
}
);
metricRight = b;
unicode = 1098;
},
{
glyphname = "ereversed-cy";
kernLeft = o;
kernRight = o;
lastChange = "2023-10-18 07:39:43 +0000";
layers = (
{
layerId = "1C9972D2-AAA2-4EE5-9F28-188B121D2056";
shapes = (
{
closed = 1;
nodes = (
(175.258,66,o),
(132.522,107.497,o),
(122,158,c),
(38,158,l),
(47.892,65.015,o),
(126.785,-9.948,o),
(254,-12,cs),
(397.322,-9.953,o),
(489.976,94.112,o),
(492,252,cs),
(489.953,411.635,o),
(398.866,513.959,o),
(256,516,cs),
(144,514,o),
(54,451,o),
(42,354,c),
(126,354,l),
(139.333,398,o),
(180,438,o),
(256,438,cs),
(344.394,438,o),
(404,372.95,o),
(404,256,cs),
(404,132.81,o),
(342.021,66,o),
(254,66,c)
);
},
{
closed = 1;
nodes = (
(438,298,l),
(190,298,l),
(190,224,l),
(438,224,l)
);
}
);
width = 530;
}
);
metricLeft = o;
metricRight = o;
unicode = 1101;
},
{
glyphname = "yi-cy";
lastChange = "2023-10-04 19:05:45 +0000";
layers = (
{
guides = (
{
pos = (66,607);
},
{
pos = (52,758);
}
);
layerId = "1C9972D2-AAA2-4EE5-9F28-188B121D2056";
shapes = (
{
closed = 1;
nodes = (
(244,0,l),
(244,520,l),
(158,520,l),
(158,0,l),
(158,0,l)
);
},
{
closed = 1;
nodes = (
(55,635,l),
(155,635,l),
(155,735,l),
(55,735,l),
(55,735,l)
);
},
{
closed = 1;
nodes = (
(245,635,l),
(345,635,l),
(345,735,l),
(245,735,l),
(245,735,l)
);
}
);
width = 394;
}
);
unicode = 1111;
},
{
glyphname = "tshe-cy";
lastChange = "2023-10-17 09:16:02 +0000";
layers = (
{
layerId = "1C9972D2-AAA2-4EE5-9F28-188B121D2056";
shapes = (
{
pos = (106,0);
ref = h;
},
{
closed = 1;
nodes = (
(397,598,l),
(397,675,l),
(60,675,l),
(60,598,l)
);
}
);
width = 654;
}
);
unicode = 1115;
},
{
glyphname = "iu-cy";
kernLeft = n;
kernRight = o;
lastChange = "2023-10-05 10:11:11 +0000";
layers = (
{
layerId = "1C9972D2-AAA2-4EE5-9F28-188B121D2056";
shapes = (
{
closed = 1;
nodes = (
(282,302,l),
(134,302,l),
(134,224,l),
(282,224,l)
);
},
{
closed = 1;
nodes = (
(64,0,l),
(150,0,l),
(150,520,l),
(64,520,l)
);
},
{
closed = 1;
nodes = (
(338.764,522,o),
(242,410.106,o),
(242,254,cs),
(242,97.698,o),
(338.81,-12.046,o),
(480,-10,cs),
(625.158,-12.044,o),
(716,97.625,o),
(716,254,cs),
(716,410.179,o),
(625.203,522,o),
(480,522,cs)
);
},
{
closed = 1;
nodes = (
(388.328,66.007,o),
(330,139.831,o),
(330,254,cs),
(330,366.399,o),
(389.918,442,o),
(480,442,cs),
(571.693,442,o),
(628,366.155,o),
(628,254,cs),
(628,140.483,o),
(573.659,65.964,o),
(480,68,cs)
);
}
);
width = 754;
}
);
metricLeft = n;
metricRight = o;
unicode = 1102;
},
{
glyphname = "ia-cy";
kernLeft = a;
kernRight = u;
lastChange = "2024-08-06 15:26:59 +0000";
layers = (
{
layerId = "1C9972D2-AAA2-4EE5-9F28-188B121D2056";
shapes = (
{
closed = 1;
nodes = (
(390,446,l),
(346,492,l),
(346,0,l),
(432,0,l),
(432,520,l),
(232,520,ls),
(121.219,520,o),
(51.961,449.844,o),
(54,354,cs),
(56.053,257.497,o),
(120.639,188,o),
(232,188,cs),
(362,188,l),
(362,262,l),
(242,262,ls),
(177.266,262,o),
(137.949,298.622,o),
(140,354,cs),
(141.333,407.333,o),
(178,444.667,o),
(242,446,cs)
);
},
{
closed = 1;
nodes = (
(126,0,l),
(286,228,l),
(186,228,l),
(26,0,l)
);
}
);
width = 496;
}
);
metricRight = u;
unicode = 1103;
},
{
glyphname = "dje-cy";
lastChange = "2023-10-05 10:11:20 +0000";
layers = (
{
layerId = "1C9972D2-AAA2-4EE5-9F28-188B121D2056";
shapes = (
{
ref = "tshe-cy";
},
{
closed = 1;
nodes = (
(420,-114,l),
(418,-190,l),
(454,-190,ls),
(544.738,-190,o),
(594,-137.351,o),
(594,-30,cs),
(594,180,l),
(508,180,l),
(508,-26,ls),
(508,-92.667,o),
(478.667,-114,o),
(440,-114,cs)
);
}
);
width = 654;
}
);
unicode = 1106;
},
{
glyphname = "be-cy.ss01";
lastChange = "2024-04-10 08:59:28 +0000";
layers = (
{
layerId = "1C9972D2-AAA2-4EE5-9F28-188B121D2056";
shapes = (
{
closed = 1;
nodes = (
(206,66,o),
(141,140,o),
(143,252,cs),
(141,361,o),
(208,425,o),
(303,427,cs),
(396,425,o),
(455,353,o),
(457,248,cs),
(455,138,o),
(393,66,o),
(301,68,cs)
);
},
{
closed = 1;
nodes = (
(351,596,ls),
(412,601,o),
(524,621,o),
(532,742,c),
(445,742,l),
(432,696,o),
(377,679,o),
(345,677,cs),
(293,673,ls),
(106,659,o),
(45,524,o),
(52,297,cs),
(58,99,o),
(152,-10,o),
(305,-12,cs),
(445,-10,o),
(542,95,o),
(544,248,cs),
(542,413,o),
(429,504,o),
(313,504,cs),
(239,504,o),
(179,476,o),
(142,424,c),
(139,424,l),
(153,533,o),
(194,582,o),
(305,592,cs)
);
}
);
width = 582;
}
);
metricRight = o;
},
{
glyphname = zero;
lastChange = "2024-08-05 19:49:45 +0000";
layers = (
{
layerId = "1C9972D2-AAA2-4EE5-9F28-188B121D2056";
shapes = (
{
closed = 1;
nodes = (
(118,714,o),
(42,525,o),
(42,352,c),
(42,140,o),
(143,-12,o),
(309,-12,cs),
(466,-12,o),
(573,122,o),
(573,352,cs),
(573,554,o),
(486,712,o),
(307,712,c)
);
},
{
closed = 1;
nodes = (
(178,70,o),
(132,215,o),
(132,352,c),
(132,513,o),
(198,631,o),
(308,631,c),
(449,631,o),
(483,463,o),
(483,352,cs),
(483,210,o),
(434,70,o),
(309,70,cs)
);
}
);
width = 615;
}
);
metricLeft = O;
metricRight = O;
unicode = 48;
},
{
glyphname = one;
lastChange = "2024-08-06 16:26:58 +0000";
layers = (
{
layerId = "1C9972D2-AAA2-4EE5-9F28-188B121D2056";
shapes = (
{
closed = 1;
nodes = (
(307,0,l),
(307,700,l),
(225,700,l),
(42,559,l),
(42,464,l),
(216,595,l),
(219,595,l),
(219,0,l)
);
}
);
width = 393;
}
);
metricLeft = O;
metricRight = H;
note = one;
unicode = 49;
},
{
glyphname = two;
lastChange = "2024-08-06 15:14:26 +0000";
layers = (
{
background = {
shapes = (
{
closed = 1;
nodes = (
(187,234,l),
(47,66,l),
(47,0,l),
(491,0,l),
(491,82,l),
(171,82,l),
(261,196,l),
(329,276,ls),
(403,363,o),
(463,467,o),
(465,520,q),
(465,572,o),
(421,656,o),
(330,712,o),
(265,712,qs),
(196,712,o),
(93,658,o),
(35,559,o),
(35,514,q),
(121,514,l),
(127,570,o),
(168,606,o),
(220,630,o),
(265,630,qs),
(311,630,o),
(353,600,o),
(379,554,o),
(379,522,qs),
(379,489,o),
(343,430,o),
(289,353,o),
(261,320,qs)
);
}
);
};
layerId = "1C9972D2-AAA2-4EE5-9F28-188B121D2056";
shapes = (
{
closed = 1;
nodes = (
(48,78,l),
(48,0,l),
(529,0,l),
(529,82,l),
(169,82,l),
(170,85,l),
(401,295,ls),
(478,365,o),
(511,424,o),
(511,509,cs),
(511,631,o),
(411,712,o),
(282,712,cs),
(151,712,o),
(47,614,o),
(47,514,c),
(139,514,l),
(143,577,o),
(197,630,o),
(282,630,cs),
(367,630,o),
(422,585,o),
(422,509,cs),
(422,442,o),
(380,389,o),
(345,356,cs)
);
}
);
width = 581;
}
);
note = two;
unicode = 50;
},
{
glyphname = three;
lastChange = "2024-08-06 15:55:20 +0000";
layers = (
{
layerId = "1C9972D2-AAA2-4EE5-9F28-188B121D2056";
shapes = (
{
closed = 1;
nodes = (
(130,522,l),
(142,590,o),
(203,629,o),
(286,629,cs),
(372,629,o),
(435,594,o),
(435,526,cs),
(435,459,o),
(376.922,400,o),
(286,400,cs),
(196,400,l),
(196,320,l),
(292,320,ls),
(387,320,o),
(448,278.667,o),
(448,200,cs),
(448,120.584,o),
(388.381,70,o),
(292,70,cs),
(197.625,70,o),
(132.224,116.767,o),
(120,184,c),
(30,184,l),
(43.727,64.379,o),
(143.549,-12,o),
(292,-12,cs),
(439.363,-12,o),
(540,75.331,o),
(540,198,cs),
(540,299,o),
(466,351,o),
(416,365,c),
(416,367,l),
(468,386,o),
(527,453,o),
(527,528,cs),
(527,643,o),
(421,712,o),
(286,712,cs),
(157,712,o),
(54,643,o),
(42,522,c)
);
}
);
width = 590;
}
);
note = three;
unicode = 51;
},
{
glyphname = four;
kernLeft = A;
kernRight = o;
lastChange = "2024-08-06 16:03:21 +0000";
layers = (
{
layerId = "1C9972D2-AAA2-4EE5-9F28-188B121D2056";
shapes = (
{
closed = 1;
nodes = (
(467,165,l),
(559,165,l),
(559,247,l),
(467,247,l),
(471,700,l),
(325,700,l),
(40,247,l),
(40,165,l),
(381,165,l),
(381,0,l),
(467,0,l)
);
},
{
closed = 1;
nodes = (
(375,620,l),
(381,620,l),
(381,247,l),
(131,247,l)
);
}
);
width = 589;
}
);
note = four;
unicode = 52;
},
{
glyphname = five;
kernRight = fove;
lastChange = "2024-08-06 15:55:05 +0000";
layers = (
{
layerId = "1C9972D2-AAA2-4EE5-9F28-188B121D2056";
shapes = (
{
closed = 1;
nodes = (
(534,364,o),
(425,458,o),
(310,458,cs),
(254,458,o),
(198,449,o),
(143,398,c),
(141,398,l),
(166,618,l),
(491,618,l),
(491,700,l),
(99,700,l),
(57,322,l),
(160,322,l),
(192,351,o),
(220,382,o),
(288,380,cs),
(390,377,o),
(444,305,o),
(446,226,cs),
(448,157,o),
(408,70,o),
(292,70,cs),
(188,70,o),
(132,144,o),
(130,184,c),
(42,184,l),
(44,126,o),
(123,-14,o),
(294,-12,cs),
(431,-10,o),
(534,96,o),
(534,230,cs)
);
}
);
width = 576;
}
);
metricLeft = O;
metricRight = O;
note = five;
unicode = 53;
},
{
glyphname = six;
lastChange = "2023-10-17 11:09:22 +0000";
layers = (
{
layerId = "1C9972D2-AAA2-4EE5-9F28-188B121D2056";
shapes = (
{
closed = 1;
nodes = (
(451,-11,o),
(555,90,o),
(556,228,cs),
(555,360,o),
(459,459,o),
(324,458,cs),
(234,459,o),
(161,415,o),
(129,348,c),
(128,348,l),
(130,532,o),
(195,629,o),
(312,630,cs),
(381,629,o),
(438,595,o),
(456,530,c),
(544,532,l),
(523,641,o),
(432,712,o),
(312,712,cs),
(143,712,o),
(40,574,o),
(42,338,cs),
(40,262,o),
(53,200,o),
(76,146,cs),
(119,46,o),
(202,-11,o),
(308,-12,cs)
);
},
{
closed = 1;
nodes = (
(217,70,o),
(147,137,o),
(148,226,cs),
(147,316,o),
(218,377,o),
(310,378,cs),
(403,377,o),
(467,316,o),
(466,224,cs),
(467,136,o),
(396,70,o),
(306,70,cs)
);
}
);
width = 598;
}
);
metricLeft = O;
metricRight = O;
note = six;
unicode = 54;
},
{
glyphname = seven;
kernLeft = seven;
lastChange = "2024-08-06 16:27:36 +0000";
layers = (
{
layerId = "1C9972D2-AAA2-4EE5-9F28-188B121D2056";
shapes = (
{
closed = 1;
nodes = (
(378,618,l),
(378,615,l),
(98,0,l),
(194,0,l),
(472,628,l),
(472,700,l),
(34,700,l),
(34,618,l)
);
}
);
width = 512;
}
);
note = seven;
unicode = 55;
},
{
glyphname = eight;
lastChange = "2024-08-06 15:25:26 +0000";
layers = (
{
layerId = "1C9972D2-AAA2-4EE5-9F28-188B121D2056";
shapes = (
{
closed = 1;
nodes = (
(456,-19,o),
(561,64,o),
(562,186,cs),
(561,269,o),
(515,345,o),
(424,366,c),
(424,368,l),
(500,394,o),
(544,450,o),
(544,524,cs),
(544,630,o),
(438,707,o),
(308,708,cs),
(176,707,o),
(74,629,o),
(75,524,cs),
(74,450,o),
(106,393,o),
(182,368,c),
(182,366,l),
(91,344,o),
(52,270,o),
(52,186,cs),
(52,65,o),
(158,-19,o),
(308,-16,cs)
);
},
{
closed = 1;
nodes = (
(210,66,o),
(140,114,o),
(140,190,cs),
(140,266,o),
(210,320,o),
(308,322,cs),
(404,320,o),
(475,267,o),
(474,190,cs),
(475,114,o),
(404,66,o),
(308,68,cs)
);
},
{
closed = 1;
nodes = (
(226,404,o),
(162,452,o),
(163,520,cs),
(162,590,o),
(226,627,o),
(308,627,cs),
(388,627,o),
(456,590,o),
(456,520,cs),
(456,452,o),
(388,404,o),
(308,403,cs)
);
}
);
width = 614;
}
);
note = eight;
unicode = 56;
},
{
glyphname = one.ss01;
lastChange = "2024-08-06 16:36:58 +0000";
layers = (
{
layerId = "1C9972D2-AAA2-4EE5-9F28-188B121D2056";
shapes = (
{
alignment = -1;
pos = (2,0);
ref = one;
},
{
closed = 1;
nodes = (
(42,0,l),
(477,0,l),
(477,82,l),
(42,82,l)
);
}
);
width = 563;
}
);
metricLeft = O;
metricRight = H;
},
{
glyphname = four.ss01;
lastChange = "2024-08-06 16:05:54 +0000";
layers = (
{
layerId = "1C9972D2-AAA2-4EE5-9F28-188B121D2056";
shapes = (
{
closed = 1;
nodes = (
(446,700,l),
(343,700,l),
(40,247,l),
(40,165,l),
(399,165,l),
(399,0,l),
(485,0,l),
(485,165,l),
(577,165,l),
(577,247,l),
(485,247,l),
(488,460,l),
(399,460,l),
(399,247,l),
(131,247,l)
);
}
);
width = 607;
}
);
},
{
glyphname = .notdef;
lastChange = "2023-10-17 09:54:29 +0000";
layers = (
{
layerId = "1C9972D2-AAA2-4EE5-9F28-188B121D2056";
shapes = (
{
closed = 1;
nodes = (
(563,705,l),
(563,124,l),
(680,124,l),
(680,705,l)
);
},
{
closed = 1;
nodes = (
(796,476,l),
(912,476,l),
(912,592,l),
(796,592,l)
);
},
{
closed = 1;
nodes = (
(911,591,l),
(1027,591,l),
(1027,707,l),
(911,707,l)
);
},
{
closed = 1;
nodes = (
(912,124,l),
(1027,125,l),
(1027,243,l),
(911,243,l)
);
},
{
closed = 1;
nodes = (
(624,360,l),
(796,360,l),
(796,476,l),
(624,476,l)
);
},
{
closed = 1;
nodes = (
(117,591,l),
(464,591,l),
(464,707,l),
(117,707,l)
);
},
{
closed = 1;
nodes = (
(69,123,l),
(185,123,l),
(185,707,l),
(69,707,l)
);
},
{
closed = 1;
nodes = (
(117,124,l),
(464,124,l),
(464,240,l),
(117,240,l)
);
},
{
closed = 1;
nodes = (
(797,242,l),
(912,243,l),
(912,361,l),
(796,361,l)
);
}
);
width = 1078;
}
);
note = .notdef;
},
{
glyphname = period;
kernLeft = comma;
lastChange = "2023-10-17 07:43:27 +0000";
layers = (
{
guides = (
{
angle = 180;
pos = (-26,104);
}
);
layerId = "1C9972D2-AAA2-4EE5-9F28-188B121D2056";
shapes = (
{
closed = 1;
nodes = (
(58,0,l),
(172,0,l),
(172,114,l),
(58,114,l)
);
}
);
width = 230;
}
);
note = period;
unicode = 46;
},
{
glyphname = comma;
kernLeft = comma;
kernRight = comma;
lastChange = "2023-12-17 15:17:27 +0000";
layers = (
{
layerId = "1C9972D2-AAA2-4EE5-9F28-188B121D2056";
shapes = (
{
closed = 1;
nodes = (
(58,0,l),
(116,0,l),
(44,-120,l),
(108,-120,l),
(172,-12,l),
(172,114,l),
(58,114,l)
);
}
);
width = 230;
}
);
note = comma;
unicode = 44;
},
{
glyphname = exclam;
kernLeft = exclam;
lastChange = "2023-10-17 07:43:35 +0000";
layers = (
{
layerId = "1C9972D2-AAA2-4EE5-9F28-188B121D2056";
shapes = (
{
closed = 1;
nodes = (
(194,206,l),
(194,710,l),
(106,710,l),
(106,206,l)
);
},
{
pos = (35,0);
ref = period;
}
);
width = 325;
}
);
note = exclam;
unicode = 33;
},
{
glyphname = question;
kernLeft = question;
kernRight = question;
lastChange = "2023-10-05 10:12:46 +0000";
layers = (
{
layerId = "1C9972D2-AAA2-4EE5-9F28-188B121D2056";
shapes = (
{
pos = (130,0);
ref = period;
},
{
closed = 1;
nodes = (
(287.333,253.333,o),
(305.333,287.333,o),
(360,334,c),
(426,402,o),
(458,468,o),
(456,532,cs),
(454.667,640,o),
(376.667,711.333,o),
(254,714,cs),
(123.333,714,o),
(38,630,o),
(46,502,c),
(134,502,l),
(135.333,586,o),
(183.333,633.333,o),
(254,632,cs),
(323.333,630.667,o),
(362.667,594.667,o),
(368,532,c),
(368,482.667,o),
(347.333,431.333,o),
(298,390,cs),
(224.667,328.667,o),
(199.333,278.667,o),
(202,192,c),
(290,192,l)
);
}
);
width = 526;
}
);
note = question;
unicode = 63;
},
{
glyphname = bullet;
kernLeft = bullet;
lastChange = "2023-10-05 10:12:52 +0000";
layers = (
{
layerId = "1C9972D2-AAA2-4EE5-9F28-188B121D2056";
shapes = (
{
closed = 1;
nodes = (
(80,198,l),
(294,198,l),
(294,412,l),
(80,412,l)
);
}
);
width = 374;
}
);
unicode = 8226;
},
{
glyphname = asterisk;
kernLeft = asterisk;
lastChange = "2023-10-05 10:12:55 +0000";
layers = (
{
layerId = "1C9972D2-AAA2-4EE5-9F28-188B121D2056";
shapes = (
{
closed = 1;
nodes = (
(233,609,l),
(351,657,l),
(374,590,l),
(249,562,l),
(332,452,l),
(277,411,l),
(202,529,l),
(132,411,l),
(76,452,l),
(158,562,l),
(35,590,l),
(56,658,l),
(176,609,l),
(169,743,l),
(241,743,l)
);
}
);
width = 409;
}
);
note = asterisk;
unicode = 42;
},
{
glyphname = numbersign;
kernLeft = numbersign;
kernRight = numbersign;
lastChange = "2023-10-05 10:12:59 +0000";
layers = (
{
layerId = "1C9972D2-AAA2-4EE5-9F28-188B121D2056";
shapes = (
{
closed = 1;
nodes = (
(372,708,l),
(286,708,l),
(234,516,l),
(74,516,l),
(74,434,l),
(211,434,l),
(170,275,l),
(10,275,l),
(10,193,l),
(146,193,l),
(96,1,l),
(182,1,l),
(233,193,l),
(391,193,l),
(341,1,l),
(427,1,l),
(478,193,l),
(640,193,l),
(640,275,l),
(501,275,l),
(542,434,l),
(704,434,l),
(704,516,l),
(566,516,l),
(617,708,l),
(531,708,l),
(479,516,l),
(321,516,l)
);
},
{
closed = 1;
nodes = (
(256,275,l),
(297,434,l),
(456,434,l),
(415,275,l)
);
}
);
width = 714;
}
);
note = numbersign;
unicode = 35;
},
{
glyphname = slash;
kernLeft = slash;
kernRight = slash;
lastChange = "2023-10-05 10:13:03 +0000";
layers = (
{
guides = (
{
pos = (-160,713);
},
{
pos = (-199,-127);
}
);
layerId = "1C9972D2-AAA2-4EE5-9F28-188B121D2056";
shapes = (
{
closed = 1;
nodes = (
(268,714,l),
(6,-68,l),
(94,-68,l),
(356,714,l)
);
}
);
width = 359;
}
);
note = slash;
unicode = 47;
},
{
glyphname = backslash;
kernLeft = backslash;
kernRight = backslash;
lastChange = "2023-10-05 10:13:05 +0000";
layers = (
{
guides = (
{
pos = (272,714);
},
{
pos = (232,-126);
}
);
layerId = "1C9972D2-AAA2-4EE5-9F28-188B121D2056";
shapes = (
{
closed = 1;
nodes = (
(266,-68,l),
(354,-68,l),
(92,714,l),
(4,714,l)
);
}
);
width = 360;
}
);
unicode = 92;
},
{
glyphname = hyphen;
lastChange = "2023-12-11 14:42:18 +0000";
layers = (
{
layerId = "1C9972D2-AAA2-4EE5-9F28-188B121D2056";
shapes = (
{
closed = 1;
nodes = (
(329,240,l),
(329,316,l),
(70,316,l),
(70,240,l)
);
}
);
width = 399;
}
);
note = hyphen;
unicode = 45;
},
{
glyphname = endash;
kernRight = hyphen;
lastChange = "2024-08-06 16:31:02 +0000";
layers = (
{
layerId = "1C9972D2-AAA2-4EE5-9F28-188B121D2056";
shapes = (
{
closed = 1;
nodes = (
(480,230,l),
(480,312,l),
(40,312,l),
(40,230,l)
);
}
);
width = 520;
}
);
unicode = 8211;
},
{
glyphname = emdash;
kernLeft = hyphen;
kernRight = hyphen;
lastChange = "2023-10-05 10:13:36 +0000";
layers = (
{
layerId = "1C9972D2-AAA2-4EE5-9F28-188B121D2056";
shapes = (
{
closed = 1;
nodes = (
(820,238,l),
(820,320,l),
(40,320,l),
(40,238,l)
);
}
);
width = 860;
}
);
unicode = 8212;
},
{
glyphname = parenleft;
kernLeft = parenleft;
kernRight = parenleft;
lastChange = "2023-10-18 07:42:22 +0000";
layers = (
{
guides = (
{
pos = (-2,714);
},
{
pos = (-40,-126);
},
{
pos = (-12,746);
}
);
layerId = "1C9972D2-AAA2-4EE5-9F28-188B121D2056";
shapes = (
{
closed = 1;
nodes = (
(244,712,l),
(197,659,o),
(164,595,o),
(144,532,cs),
(118,457,o),
(104,376,o),
(104,292,cs),
(104,214,o),
(117,127,o),
(144,54,cs),
(164,-12,o),
(199,-76,o),
(244,-128,c),
(336,-128,l),
(307,-88,o),
(256,-10,o),
(238,46,c),
(202,131,o),
(192,200,o),
(190,292,cs),
(192,384,o),
(202,453,o),
(238,538,c),
(257,596,o),
(308,673,o),
(336,712,c)
);
}
);
width = 384;
}
);
note = parenleft;
unicode = 40;
},
{
glyphname = braceleft;
kernLeft = braceleft;
kernRight = braceleft;
lastChange = "2023-10-05 10:13:45 +0000";
layers = (
{
guides = (
{
pos = (-42,746);
},
{
pos = (-80,-144);
}
);
layerId = "1C9972D2-AAA2-4EE5-9F28-188B121D2056";
shapes = (
{
closed = 1;
nodes = (
(386,-144,l),
(290,-144,ls),
(198,-144,o),
(162,-89,o),
(162,-6,cs),
(162,190,ls),
(161,235,o),
(123,266,o),
(64,264,c),
(64,340,l),
(119,336,o),
(148,367,o),
(148,408,cs),
(148,604,ls),
(148,688,o),
(199,744,o),
(296,744,cs),
(386,744,l),
(386,668,l),
(294,668,ls),
(247,667,o),
(230,642,o),
(230,598,cs),
(230,418,ls),
(230,352,o),
(199,294,o),
(130,286,c),
(130,316,l),
(197,310,o),
(244,249,o),
(244,186,cs),
(244,4,ls),
(244,-41,o),
(248,-67,o),
(294,-66,cs),
(386,-66,l)
);
}
);
width = 406;
}
);
unicode = 123;
},
{
glyphname = braceright;
kernLeft = parenright;
kernRight = parenright;
lastChange = "2023-10-05 10:13:48 +0000";
layers = (
{
guides = (
{
pos = (-16,714);
},
{
pos = (-54,-126);
},
{
angle = 180;
pos = (38,634);
},
{
angle = 180;
pos = (38,-46);
}
);
layerId = "1C9972D2-AAA2-4EE5-9F28-188B121D2056";
shapes = (
{
closed = 1;
nodes = (
(112,-66,ls),
(157,-67,o),
(174,-41,o),
(176,4,cs),
(178,186,ls),
(179,249,o),
(208,310,o),
(276,316,c),
(276,286,l),
(206,294,o),
(178,352,o),
(178,418,cs),
(178,598,ls),
(178,642,o),
(158,667,o),
(112,668,cs),
(20,668,l),
(20,744,l),
(110,744,ls),
(206,744,o),
(260,688,o),
(260,604,cs),
(260,408,ls),
(260,367,o),
(286,336,o),
(342,340,c),
(342,264,l),
(282,266,o),
(261,235,o),
(260,190,cs),
(258,-6,ls),
(256,-89,o),
(207,-144,o),
(116,-144,cs),
(20,-144,l),
(20,-66,l)
);
}
);
width = 406;
}
);
unicode = 125;
},
{
glyphname = bracketleft;
kernLeft = parenleft;
kernRight = parenleft;
lastChange = "2023-10-05 10:13:51 +0000";
layers = (
{
guides = (
{
pos = (-20,746);
},
{
pos = (-60,-144);
},
{
angle = 180;
pos = (32,634);
},
{
angle = 180;
pos = (32,-46);
}
);
layerId = "1C9972D2-AAA2-4EE5-9F28-188B121D2056";
shapes = (
{
closed = 1;
nodes = (
(120,-144,l),
(120,746,l),
(334,746,l),
(334,670,l),
(202,670,l),
(202,-68,l),
(334,-68,l),
(334,-144,l)
);
}
);
width = 374;
}
);
unicode = 91;
},
{
glyphname = bracketright;
kernLeft = parenright;
kernRight = parenright;
lastChange = "2023-10-17 12:30:11 +0000";
layers = (
{
guides = (
{
pos = (-124,714);
},
{
pos = (-162,-126);
}
);
layerId = "1C9972D2-AAA2-4EE5-9F28-188B121D2056";
shapes = (
{
closed = 1;
nodes = (
(40,-68,l),
(172,-68,l),
(172,670,l),
(40,670,l),
(40,746,l),
(254,746,l),
(254,-144,l),
(40,-144,l)
);
}
);
width = 374;
}
);
unicode = 93;
},
{
glyphname = guilsinglleft;
kernLeft = less;
kernRight = less;
lastChange = "2023-10-04 19:05:45 +0000";
layers = (
{
layerId = "1C9972D2-AAA2-4EE5-9F28-188B121D2056";
shapes = (
{
closed = 1;
nodes = (
(118,262,l),
(246,86,l),
(154,84,l),
(46,226,l),
(46,304,l),
(154,442,l),
(248,442,l),
(248,442,l)
);
}
);
width = 300;
}
);
unicode = 8249;
},
{
glyphname = quotesingle;
kernLeft = quotesingle;
kernRight = quotesingle;
lastChange = "2023-10-04 19:05:45 +0000";
layers = (
{
layerId = "1C9972D2-AAA2-4EE5-9F28-188B121D2056";
shapes = (
{
closed = 1;
nodes = (
(60,520,l),
(142,520,l),
(142,713,l),
(60,713,l),
(60,713,l)
);
}
);
width = 203;
}
);
note = quotesingle;
unicode = 39;
},
{
glyphname = at;
kernLeft = at;
kernRight = at;
lastChange = "2023-10-17 12:41:32 +0000";
layers = (
{
layerId = "1C9972D2-AAA2-4EE5-9F28-188B121D2056";
shapes = (
{
closed = 1;
nodes = (
(63,37,o),
(252.667,-90.667,o),
(434,-96,cs),
(475.333,-97.333,o),
(552,-100,o),
(634,-72,c),
(630,-8,l),
(571.333,-28,o),
(508.667,-34.667,o),
(442,-28,cs),
(263.333,-10.667,o),
(137,88,o),
(138,296,cs),
(137,503,o),
(260,645,o),
(460,646,cs),
(635,645,o),
(768,535,o),
(776,370,cs),
(783,234,o),
(760,167,o),
(686,162,c),
(632,164,o),
(626,196.667,o),
(626,238,cs),
(627.333,312,o),
(628,354,o),
(628,364,cs),
(628,496,l),
(556,496,l),
(556,441,l),
(554,441,l),
(529,481,o),
(496,506,o),
(443,506,cs),
(346,506,o),
(264,429,o),
(264,306,cs),
(264,189,o),
(332,102,o),
(422,100,cs),
(464,99,o),
(525,111,o),
(570,185,c),
(572,185,l),
(579,126,o),
(637,95,o),
(696,94,cs),
(830,92,o),
(856,253,o),
(852,370,cs),
(849,455,o),
(797.333,562,o),
(728,618,cs),
(658.667,674,o),
(570,712,o),
(470,712,cs),
(211,712,o),
(63,529,o),
(64,290,cs)
);
},
{
closed = 1;
nodes = (
(342,399.333,o),
(399,441,o),
(448,442,cs),
(494,443,o),
(560,401.333,o),
(556,308,cs),
(552.442,219.044,o),
(492,166,o),
(438,166,cs),
(384,166,o),
(342,218,o),
(342,306,cs)
);
}
);
width = 916;
}
);
note = at;
unicode = 64;
},
{
glyphname = ampersand;
lastChange = "2023-10-18 07:42:44 +0000";
layers = (
{
background = {
shapes = (
{
closed = 1;
nodes = (
(-8892,300,l),
(-8892,428,l),
(-9110,428,l),
(-9110,366,l),
(-9110,284,l),
(-9256,418,l),
(-9273,434,o),
(-9293,451,o),
(-9304,464,c),
(-9320,480,o),
(-9334,501,o),
(-9334,526,cs),
(-9334,562,o),
(-9321,584,o),
(-9290,598,c),
(-9276,603,o),
(-9259,606,o),
(-9240,606,cs),
(-9216,606,o),
(-9187,601,o),
(-9166,584,c),
(-9157,574,o),
(-9152,563,o),
(-9148,548,c),
(-9014,574,l),
(-9022,607,o),
(-9039,641,o),
(-9064,668,c),
(-9107,714,o),
(-9170,733,o),
(-9236,734,cs),
(-9269,733,o),
(-9304,730,o),
(-9338,718,c),
(-9420,689,o),
(-9471,615,o),
(-9470,528,cs),
(-9471,475,o),
(-9453,438,o),
(-9416,398,c),
(-9430,387,o),
(-9443,376,o),
(-9454,364,c),
(-9489,322,o),
(-9505,268,o),
(-9504,212,cs),
(-9503,153,o),
(-9485,103,o),
(-9446,62,c),
(-9399,9,o),
(-9324,-15,o),
(-9244,-14,cs),
(-9220,-15,o),
(-9196,-13,o),
(-9170,-8,c),
(-9128,-2,o),
(-9082,16,o),
(-9044,50,c),
(-8978,-14,l),
(-8890,80,l),
(-8978,160,l),
(-8975,177,o),
(-8973,194,o),
(-8972,210,c),
(-8972,300,l)
);
},
{
closed = 1;
nodes = (
(-9209,115,o),
(-9223,114,o),
(-9238,114,cs),
(-9275,114,o),
(-9327,125,o),
(-9348,154,c),
(-9362,170,o),
(-9368,190,o),
(-9368,220,cs),
(-9368,243,o),
(-9363,262,o),
(-9350,278,c),
(-9344,287,o),
(-9332,296,o),
(-9318,302,c),
(-9142,140,l),
(-9156,130,o),
(-9174,122,o),
(-9194,118,c)
);
}
);
};
layerId = "1C9972D2-AAA2-4EE5-9F28-188B121D2056";
shapes = (
{
closed = 1;
nodes = (
(568,0,l),
(678,0,l),
(554,134,l),
(658,255,l),
(657,370,l),
(502,184,l),
(344,372,l),
(344,374,l),
(450,432,o),
(494,484,o),
(494,555,cs),
(494,646,o),
(420,712,o),
(316,712,cs),
(216,712,o),
(141,646,o),
(140,556,cs),
(141,508,o),
(165,462,o),
(226,396,c),
(226,394,l),
(200,378,l),
(108,331,o),
(64,267,o),
(64,185,cs),
(64,70,o),
(160,-12,o),
(298,-12,cs),
(381,-12,o),
(443,23,o),
(504,76,c)
);
},
{
closed = 1;
nodes = (
(272,342,l),
(452,130,l),
(415,91,o),
(380,60,o),
(306,60,cs),
(212,60,o),
(150,109,o),
(148,191,c),
(150,246,o),
(176,283,o),
(247,328,c)
);
},
{
closed = 1;
nodes = (
(244,479,o),
(223,515,o),
(222,552,cs),
(221,606,o),
(263,643,o),
(316,644,cs),
(370,645,o),
(409,607,o),
(410,553,cs),
(411,506,o),
(382,467,o),
(298,426,c)
);
}
);
width = 742;
}
);
note = ampersand;
unicode = 38;
},
{
glyphname = paragraph;
lastChange = "2023-10-05 10:14:08 +0000";
layers = (
{
layerId = "1C9972D2-AAA2-4EE5-9F28-188B121D2056";
shapes = (
{
closed = 1;
nodes = (
(271,700,l),
(182,700,ls),
(67.333,700,o),
(-3,623.667,o),
(-3,521,cs),
(-3,418.333,o),
(69.333,342,o),
(184,342,c),
(184,-132,l),
(271,-132,l)
);
},
{
closed = 1;
nodes = (
(342,-133,l),
(430,-133,l),
(430,700,l),
(342,700,l)
);
}
);
width = 562;
}
);
note = paragraph;
unicode = 182;
},
{
glyphname = section;
lastChange = "2023-10-17 13:36:39 +0000";
layers = (
{
layerId = "1C9972D2-AAA2-4EE5-9F28-188B121D2056";
shapes = (
{
closed = 1;
nodes = (
(40,215,o),
(101,163,o),
(183,147,cs),
(278,128,ls),
(331,117,o),
(359,92,o),
(359,47,cs),
(359,-4,o),
(315,-39,o),
(252,-39,cs),
(187,-39,o),
(148,-11,o),
(136,43,c),
(50,43,l),
(64,-61,o),
(141,-115,o),
(250,-115,cs),
(363,-115,o),
(445,-44,o),
(445,54,cs),
(445,103,o),
(418,147,o),
(381,175,c),
(381,177,l),
(427,201,o),
(471,237,o),
(471,300,cs),
(471,380,o),
(412,439,o),
(325,458,cs),
(237,477,ls),
(190,487,o),
(154,509,o),
(154,554,cs),
(154,604,o),
(187,636,o),
(249,636,cs),
(305,636,o),
(349,610,o),
(362,564,c),
(447,564,l),
(436,654,o),
(353,712,o),
(250,712,cs),
(138,712,o),
(68,641,o),
(68,548,cs),
(68,483,o),
(105,454,o),
(143,429,c),
(143,426,l),
(94,403,o),
(40,364,o),
(40,298,cs)
);
},
{
closed = 1;
nodes = (
(209,224,ls),
(157,234,o),
(126,272,o),
(126,314,cs),
(126,358,o),
(161,386,o),
(202,403,c),
(297,383,ls),
(350,372,o),
(385,331,o),
(385,287,cs),
(385,246,o),
(355,220,o),
(320,202,c)
);
}
);
width = 511;
}
);
unicode = 167;
},
{
glyphname = copyright;
lastChange = "2024-08-06 16:38:54 +0000";
layers = (
{
layerId = "1C9972D2-AAA2-4EE5-9F28-188B121D2056";
shapes = (
{
closed = 1;
nodes = (
(668,-58,o),
(833,117,o),
(836,348,cs),
(833,576,o),
(668,750,o),
(444,750,cs),
(216,750,o),
(39,578,o),
(42,350,cs),
(39,119,o),
(216,-58,o),
(444,-56,cs)
);
},
{
closed = 1;
nodes = (
(257,13,o),
(111,159,o),
(114,350,cs),
(111,538,o),
(257,679,o),
(444,678,cs),
(626,679,o),
(761,536,o),
(760,348,cs),
(761,157,o),
(626,13,o),
(444,16,cs)
);
},
{
closed = 1;
nodes = (
(624,420,l),
(614,494,o),
(549,558,o),
(444,560,cs),
(322,558,o),
(244,475,o),
(246,346,cs),
(244,212,o),
(322,130,o),
(444,130,cs),
(548,130,o),
(614,190,o),
(624,268,c),
(556,270,l),
(544,220,o),
(501,193,o),
(444,192,cs),
(365,193,o),
(315,250,o),
(316,346,cs),
(315,438,o),
(365,495,o),
(444,498,c),
(506,495,o),
(546,461,o),
(556,418,c)
);
}
);
width = 878;
}
);
metricLeft = O;
metricRight = O;
unicode = 169;
},
{
glyphname = registered;
lastChange = "2023-10-17 12:42:34 +0000";
layers = (
{
layerId = "1C9972D2-AAA2-4EE5-9F28-188B121D2056";
shapes = (
{
closed = 1;
nodes = (
(430,224,o),
(541,332,o),
(540,470,cs),
(541,607,o),
(430,713,o),
(292,712,cs),
(151,713,o),
(41,605,o),
(42,470,cs),
(41,332,o),
(151,224,o),
(292,226,cs)
);
},
{
closed = 1;
nodes = (
(184,277,o),
(99,362,o),
(98,470,cs),
(99,577,o),
(184,662,o),
(290,662,cs),
(399,662,o),
(484,577,o),
(484,470,cs),
(484,362,o),
(399,277,o),
(292,276,cs)
);
},
{
closed = 1;
nodes = (
(248,356,l),
(248,442,l),
(288,442,l),
(342,356,l),
(404,356,l),
(338,450,l),
(372,455,o),
(394,482,o),
(392,520,c),
(394,560,o),
(360,590,o),
(312,590,cs),
(198,590,l),
(198,356,l)
);
},
{
closed = 1;
nodes = (
(248,548,l),
(302,550,l),
(327,549,o),
(341,538,o),
(342,516,cs),
(341,494,o),
(326,482,o),
(302,480,c),
(248,480,l)
);
}
);
width = 582;
}
);
metricLeft = O;
metricRight = O;
unicode = 174;
},
{
glyphname = trademark;
kernLeft = trademark;
lastChange = "2023-10-05 10:14:23 +0000";
layers = (
{
layerId = "1C9972D2-AAA2-4EE5-9F28-188B121D2056";
shapes = (
{
closed = 1;
nodes = (
(324,648,l),
(324,700,l),
(24,700,l),
(24,648,l),
(144,648,l),
(144,338,l),
(204,338,l),
(204,648,l)
);
},
{
closed = 1;
nodes = (
(408,564,o),
(407.333,601.333,o),
(406,632,c),
(408,632,l),
(516,340,l),
(574,340,l),
(684,630,l),
(686,630,l),
(683.333,587.333,o),
(682,550.667,o),
(682,520,cs),
(682,338,l),
(740,338,l),
(740,700,l),
(653,700,l),
(548,418,l),
(546,418,l),
(439,700,l),
(350,700,l),
(350,338,l),
(408,338,l),
(408,520,l)
);
}
);
width = 764;
}
);
unicode = 8482;
},
{
glyphname = degree;
lastChange = "2023-10-04 19:05:45 +0000";
layers = (
{
layerId = "1C9972D2-AAA2-4EE5-9F28-188B121D2056";
shapes = (
{
closed = 1;
nodes = (
(246,431,o),
(308,494,o),
(308,570,cs),
(308,649,o),
(246,711,o),
(168,712,cs),
(90,711,o),
(29,649,o),
(30,570,cs),
(29,494,o),
(90,431,o),
(168,432,cs)
);
},
{
closed = 1;
nodes = (
(128,495,o),
(91,530,o),
(90,570,cs),
(91,615,o),
(128,649,o),
(168,650,cs),
(211,649,o),
(246,615,o),
(246,570,cs),
(246,530,o),
(211,495,o),
(168,494,cs)
);
}
);
width = 338;
}
);
unicode = 176;
},
{
glyphname = bar;
lastChange = "2023-10-05 10:14:28 +0000";
layers = (
{
layerId = "1C9972D2-AAA2-4EE5-9F28-188B121D2056";
shapes = (
{
closed = 1;
nodes = (
(90,0,l),
(178,0,l),
(178,700,l),
(90,700,l)
);
}
);
width = 268;
}
);
unicode = 124;
},
{
glyphname = numero;
lastChange = "2023-10-05 10:14:31 +0000";
layers = (
{
layerId = "1C9972D2-AAA2-4EE5-9F28-188B121D2056";
shapes = (
{
alignment = -1;
ref = N;
},
{
closed = 1;
nodes = (
(993,397,o),
(1062,465,o),
(1062,550,cs),
(1062,638,o),
(993,707,o),
(906,708,cs),
(819,707,o),
(753,638,o),
(754,550,cs),
(753,465,o),
(819,397,o),
(906,398,cs)
);
},
{
closed = 1;
nodes = (
(866,477,o),
(829,512,o),
(828,552,cs),
(829,597,o),
(866,631,o),
(906,632,cs),
(949,631,o),
(984,597,o),
(984,552,cs),
(984,512,o),
(949,477,o),
(906,476,cs)
);
},
{
closed = 1;
nodes = (
(769,240,l),
(1049,240,l),
(1049,318,l),
(769,318,l)
);
}
);
width = 1150;
}
);
unicode = 8470;
},
{
glyphname = cent;
lastChange = "2023-10-05 10:14:36 +0000";
layers = (
{
layerId = "1C9972D2-AAA2-4EE5-9F28-188B121D2056";
shapes = (
{
ref = c;
},
{
closed = 1;
nodes = (
(228,491,l),
(314,491,l),
(314,616,l),
(228,616,l)
);
},
{
closed = 1;
nodes = (
(228,-87,l),
(314,-87,l),
(314,38,l),
(228,38,l)
);
}
);
width = 530;
}
);
unicode = 162;
},
{
glyphname = dollar;
kernLeft = S;
kernRight = S;
lastChange = "2023-10-05 10:14:38 +0000";
layers = (
{
layerId = "1C9972D2-AAA2-4EE5-9F28-188B121D2056";
shapes = (
{
pos = (6,0);
ref = S;
},
{
closed = 1;
nodes = (
(285,-79,l),
(351,-79,l),
(351,794,l),
(285,794,l)
);
}
);
width = 620;
}
);
note = dollar;
unicode = 36;
},
{
glyphname = euro;
kernLeft = C;
kernRight = C;
lastChange = "2023-10-17 13:36:34 +0000";
layers = (
{
layerId = "1C9972D2-AAA2-4EE5-9F28-188B121D2056";
shapes = (
{
closed = 1;
nodes = (
(42,382,l),
(444,382,l),
(444,444,l),
(42,444,l)
);
},
{
closed = 1;
nodes = (
(42,260,l),
(444,260,l),
(444,321,l),
(42,321,l)
);
},
{
closed = 1;
nodes = (
(535,220,l),
(519,151,o),
(467,69,o),
(373,70,cs),
(262,71,o),
(191,185,o),
(191,352,cs),
(191,478,o),
(225,628,o),
(369,628,cs),
(482,628,o),
(514,540,o),
(535,486,c),
(625,486,l),
(600,590,o),
(521,710,o),
(373,710,cs),
(188,710,o),
(106,537,o),
(106,352,cs),
(106,175,o),
(191,-11,o),
(380,-11,cs),
(515,-11,o),
(598,88,o),
(625,220,c)
);
}
);
width = 669;
}
);
metricLeft = C;
metricRight = C;
unicode = 8364;
},
{
glyphname = ruble;
kernLeft = P;
kernRight = P;
lastChange = "2023-10-18 14:44:55 +0000";
layers = (
{
layerId = "1C9972D2-AAA2-4EE5-9F28-188B121D2056";
shapes = (
{
closed = 1;
nodes = (
(152,700,l),
(152,0,l),
(242,0,l),
(242,640,l),
(222,620,l),
(388,620,ls),
(481.966,620,o),
(540,565.934,o),
(540,486,cs),
(540,399.333,o),
(482.667,352,o),
(388,352,cs),
(61,352,l),
(61,272,l),
(400,272,ls),
(492,272,o),
(565.667,293.167,o),
(603,368.5,cs),
(621.667,406.167,o),
(631.333,445.333,o),
(632,486,cs),
(630.023,608.546,o),
(540.075,700,o),
(398,700,cs)
);
},
{
closed = 1;
nodes = (
(59,137,l),
(490,137,l),
(490,202,l),
(59,202,l)
);
}
);
width = 676;
}
);
metricRight = P;
unicode = 8381;
},
{
glyphname = sterling;
lastChange = "2023-10-18 14:45:00 +0000";
layers = (
{
layerId = "1C9972D2-AAA2-4EE5-9F28-188B121D2056";
shapes = (
{
closed = 1;
nodes = (
(554,531,l),
(541,629,o),
(431,712,o),
(319,712,cs),
(187,712,o),
(88,618,o),
(88,498,cs),
(84,388,o),
(173,337,o),
(177,240,c),
(186,158,o),
(138,91,o),
(50,91,c),
(50,0,l),
(526,2,l),
(526,84,l),
(162,82,l),
(162,66,l),
(225,76,o),
(265,129,o),
(265,210,cs),
(265,320,o),
(176,395,o),
(176,498,cs),
(176,591,o),
(247,631,o),
(319,630,cs),
(404,630,o),
(454,577,o),
(466,531,c)
);
},
{
closed = 1;
nodes = (
(40,315,l),
(446,315,l),
(446,377,l),
(40,377,l)
);
}
);
width = 589;
}
);
unicode = 163;
},
{
glyphname = yen;
lastChange = "2023-10-17 12:45:51 +0000";
layers = (
{
layerId = "1C9972D2-AAA2-4EE5-9F28-188B121D2056";
shapes = (
{
closed = 1;
nodes = (
(354,0,l),
(356,306,l),
(262,306,l),
(264,0,l)
);
},
{
closed = 1;
nodes = (
(16,700,l),
(272,267,l),
(346,267,l),
(602,700,l),
(501,700,l),
(296,355,l),
(322,355,l),
(117,700,l)
);
},
{
closed = 1;
nodes = (
(107,274,l),
(502,274,l),
(502,336,l),
(107,336,l)
);
},
{
closed = 1;
nodes = (
(107,126,l),
(502,126,l),
(502,188,l),
(107,188,l)
);
}
);
width = 618;
}
);
unicode = 165;
},
{
glyphname = plus;
lastChange = "2023-10-17 08:55:38 +0000";
layers = (
{
guides = (
{
pos = (-5,345);
},
{
pos = (1,273);
}
);
layerId = "1C9972D2-AAA2-4EE5-9F28-188B121D2056";
shapes = (
{
closed = 1;
nodes = (
(227,550,l),
(227,349,l),
(38,349,l),
(38,272,l),
(227,272,l),
(227,81,l),
(309,81,l),
(309,272,l),
(497,272,l),
(497,349,l),
(309,349,l),
(309,550,l)
);
}
);
width = 535;
}
);
note = plus;
unicode = 43;
},
{
glyphname = minus;
kernLeft = strokeshortcomb;
kernRight = strokeshortcomb;
lastChange = "2023-10-04 21:20:04 +0000";
layers = (
{
guides = (
{
pos = (24,426);
},
{
pos = (32,132);
}
);
layerId = "1C9972D2-AAA2-4EE5-9F28-188B121D2056";
shapes = (
{
closed = 1;
nodes = (
(516,350,l),
(37,349,l),
(37,272,l),
(516,272,l)
);
}
);
width = 554;
}
);
unicode = 8722;
},
{
glyphname = greater;
lastChange = "2023-10-17 12:39:05 +0000";
layers = (
{
layerId = "1C9972D2-AAA2-4EE5-9F28-188B121D2056";
shapes = (
{
closed = 1;
nodes = (
(36,549,l),
(36,468,l),
(372,317,l),
(372,313,l),
(36,162,l),
(36,80,l),
(461,277,l),
(461,352,l)
);
}
);
width = 501;
}
);
unicode = 62;
},
{
glyphname = asciitilde;
lastChange = "2023-10-04 19:05:45 +0000";
layers = (
{
layerId = "1C9972D2-AAA2-4EE5-9F28-188B121D2056";
shapes = (
{
closed = 1;
nodes = (
(123,213,l),
(123,267,o),
(128,299,o),
(161,299,cs),
(214,299,o),
(299,214,o),
(375,214,cs),
(442,214,o),
(491,275,o),
(491,387,c),
(405,387,l),
(405,339,o),
(395,296,o),
(366,296,cs),
(326,296,o),
(248,381,o),
(160,381,cs),
(87,381,o),
(38,327,o),
(38,214,c)
);
}
);
width = 529;
}
);
unicode = 126;
},
{
glyphname = asciicircum;
lastChange = "2023-10-17 12:39:25 +0000";
layers = (
{
layerId = "1C9972D2-AAA2-4EE5-9F28-188B121D2056";
shapes = (
{
closed = 1;
nodes = (
(491,441,l),
(346,700,l),
(246,700,l),
(101,441,l),
(176,441,l),
(295,646,l),
(297,646,l),
(416,441,l)
);
}
);
width = 600;
}
);
unicode = 94;
},
{
glyphname = percent;
kernLeft = percent;
kernRight = percent;
lastChange = "2023-10-17 13:29:20 +0000";
layers = (
{
layerId = "1C9972D2-AAA2-4EE5-9F28-188B121D2056";
shapes = (
{
closed = 1;
nodes = (
(565,700,l),
(131,0,l),
(215,0,l),
(645,700,l)
);
},
{
closed = 1;
nodes = (
(263,357,o),
(327,418,o),
(327,542,cs),
(327,647,o),
(263,713,o),
(183,712,cs),
(103,711,o),
(35,647,o),
(35,536,cs),
(35,418,o),
(103,359,o),
(183,358,cs)
);
},
{
closed = 1;
nodes = (
(120,424,o),
(105,491,o),
(105,536,cs),
(105,581,o),
(118,645,o),
(183,646,cs),
(243,647,o),
(257,581,o),
(257,536,cs),
(257,491,o),
(245,424,o),
(183,424,cs)
);
},
{
closed = 1;
nodes = (
(694,-13,o),
(758,48,o),
(758,172,cs),
(758,277,o),
(694,343,o),
(614,342,cs),
(534,341,o),
(466,277,o),
(466,166,cs),
(466,48,o),
(534,-11,o),
(614,-12,cs)
);
},
{
closed = 1;
nodes = (
(551,54,o),
(536,121,o),
(536,166,cs),
(536,211,o),
(549,275,o),
(614,276,cs),
(674,277,o),
(688,211,o),
(688,166,cs),
(688,121,o),
(676,54,o),
(614,54,cs)
);
}
);
width = 793;
}
);
note = percent;
unicode = 37;
},
{
glyphname = ring;
lastChange = "2023-10-04 19:05:45 +0000";
layers = (
{
layerId = "1C9972D2-AAA2-4EE5-9F28-188B121D2056";
shapes = (
{
closed = 1;
nodes = (
(10,806,o),
(56,763,o),
(114,764,cs),
(170,763,o),
(216,806,o),
(216,862,cs),
(216,916,o),
(170,959,o),
(114,960,cs),
(56,959,o),
(10,916,o),
(10,862,cs)
);
},
{
closed = 1;
nodes = (
(70,887,o),
(88,905,o),
(111,906,cs),
(136,905,o),
(153,887,o),
(154,863,cs),
(153,838,o),
(136,820,o),
(111,822,c),
(88,820,o),
(70,838,o),
(70,863,cs)
);
}
);
width = 226;
}
);
note = "recipe: offset curve 30, no auto; then redrawn two circles manually for perfect fit.";
unicode = 730;
userData = {
"interface.width-adjustments" = (
-16
);
};
},
{
glyphname = tilde;
lastChange = "2023-10-04 19:05:45 +0000";
layers = (
{
layerId = "1C9972D2-AAA2-4EE5-9F28-188B121D2056";
shapes = (
{
closed = 1;
nodes = (
(78,788,l),
(78,806,ls),
(77,826,o),
(87,853,o),
(108,854,c),
(121,853,o),
(137,845,o),
(164,816,cs),
(183,796,o),
(213,788,o),
(242,788,cs),
(299,788,o),
(333,851,o),
(334,908,cs),
(334,926,l),
(266,926,l),
(266,904,ls),
(265,885,o),
(253,861,o),
(234,862,cs),
(216,861,o),
(204,875,o),
(188,890,cs),
(165,911,o),
(135,926,o),
(106,926,cs),
(49,926,o),
(9,870,o),
(10,814,cs),
(10,788,l),
(10,788,l)
);
}
);
width = 344;
}
);
unicode = 732;
userData = {
interface.gridadjust.original = "{'width': 1352, 'leftMargin': 175, 'rightMargin': 194}";
"interface.width-adjustments" = (
-16
);
};
},
{
glyphname = macron;
lastChange = "2023-10-04 19:05:45 +0000";
layers = (
{
layerId = "1C9972D2-AAA2-4EE5-9F28-188B121D2056";
shapes = (
{
closed = 1;
nodes = (
(322,820,l),
(322,892,l),
(10,892,l),
(10,820,l),
(10,820,l)
);
}
);
width = 332;
}
);
unicode = 175;
userData = {
interface.gridadjust.original = "{'width': 1310, 'leftMargin': 198, 'rightMargin': 173}";
"interface.width-adjustments" = (
-16
);
};
},
